<?xml version="1.0" encoding="UTF-8" standalone="no" ?>
<!DOCTYPE svg PUBLIC "-//W3C//DTD SVG 1.1//EN" "http://www.w3.org/Graphics/SVG/1.1/DTD/svg11.dtd">
<svg xmlns="http://www.w3.org/2000/svg" xmlns:xlink="http://www.w3.org/1999/xlink" version="1.1" width="570" height="570" viewBox="0 0 570 570" xml:space="preserve">
<desc>Created with Fabric.js 3.6.6</desc>
<defs>
</defs>
<g transform="matrix(1 0 0 1 299 286)"  >
<g style=""   >
		<g transform="matrix(1 0 0 1 -275 -275)"  >
<rect style="stroke: none; stroke-width: 1; stroke-dasharray: none; stroke-linecap: butt; stroke-dashoffset: 0; stroke-linejoin: miter; stroke-miterlimit: 4; fill: rgb(201,145,145); fill-opacity: 0; fill-rule: nonzero; opacity: 1;"  x="-50" y="-50" rx="0" ry="0" width="100" height="100" />
</g>
		<g transform="matrix(1 0 0 1 -227 -220)"  >
<rect style="stroke: none; stroke-width: 1; stroke-dasharray: none; stroke-linecap: butt; stroke-dashoffset: 0; stroke-linejoin: miter; stroke-miterlimit: 4; fill: rgb(189,65,65); fill-opacity: 0; fill-rule: nonzero; opacity: 1;"  x="-50" y="-50" rx="0" ry="0" width="100" height="100" />
</g>
		<g transform="matrix(1 0 0 1 -311 -328)"  >
<rect style="stroke: none; stroke-width: 1; stroke-dasharray: none; stroke-linecap: butt; stroke-dashoffset: 0; stroke-linejoin: miter; stroke-miterlimit: 4; fill: none; fill-rule: nonzero; opacity: 1;"  x="-50" y="-50" rx="0" ry="0" width="100" height="100" />
</g>
		<g transform="matrix(1 0 0 1 -21.18 2)"  >
<path style="stroke: none; stroke-width: 1; stroke-dasharray: none; stroke-linecap: butt; stroke-dashoffset: 0; stroke-linejoin: miter; stroke-miterlimit: 4; fill: rgb(114,74,169); fill-rule: nonzero; opacity: 1;"  transform=" translate(-339.82, -380)" d="m 319.68295188903807 228.45420550346375 c 9.0156 0 16.297 7.2812 16.297 16.297 s -7.2812 16.297 -16.297 16.297 s -16.297 -7.2812 -16.297 -16.297 s 7.2812 -16.297 16.297 -16.297 z m 123.82 32.594 c 9.0156 0 16.297 -7.2812 16.297 -16.297 s -7.2812 -16.297 -16.297 -16.297 s -16.297 7.2812 -16.297 16.297 s 7.3359000000000005 16.297 16.297 16.297 z m -43.176 31.137 c 5.1523 -3.4141 6.5508 -10.359 3.0781 -15.512 l -6.2148 -9.3516 c 4.3672 -1.5117 7.5039 -5.6562 7.5039 -10.527 c 0 -6.1602 -5.0391 -11.199 -11.199 -11.199 h -24.863 c -6.1602 0 -11.199 5.0391 -11.199 11.199 c 0 4.8711 3.1367 9.0156 7.5039 10.527 l -6.2148 9.3516 c -3.4141 5.1523 -2.0156 12.098 3.0781 15.512 c 1.9022999999999999 1.2891 4.0898 1.9022999999999999 6.2148 1.9022999999999999 c 3.6406 0 7.168 -1.7344 9.3516 -4.9844 l 3.6953 -5.6016 l 3.6953 5.6016 c 2.1836 3.2461 5.7109000000000005 4.9844 9.3516 4.9844 c 2.1836 0 4.3125 -0.61328 6.2188 -1.9022999999999999 z m 45.918 219.18 c -6.1602 0 -11.199 5.0391 -11.199 11.199 v 95.426 c 0 6.3828000000000005 -5.207 11.594 -11.594 11.594 c -6.3828000000000005 0 -11.594 -5.207 -11.594 -11.594 v -32.871 c 0 -6.1602 -5.0391 -11.199 -11.199 -11.199 s -11.199 5.0391 -11.199 11.199 v 32.871 c 0 18.762 15.23 33.992 33.992 33.992 s 33.992 -15.23 33.992 -33.992 v -95.426 c 0 -6.2148 -4.9844 -11.199 -11.199 -11.199 z m -56.785 -27.945 v 68.039 c 0 6.1602 5.0391 11.199 11.199 11.199 s 11.199 -5.0391 11.199 -11.199 l 0.0039060000000000032 -68.039 c 0 -6.1602 -5.0391 -11.199 -11.199 -11.199 s -11.203 5.0391 -11.203 11.199 z m -27.941 56 c -6.1602 0 -11.199 5.0391 -11.199 11.199 v 67.312 c 0 6.3828000000000005 -5.207 11.594 -11.594 11.594 c -6.3828000000000005 0 -11.594 -5.207 -11.594 -11.594 v -95.367 c 0 -6.1602 -5.0391 -11.199 -11.199 -11.199 c -6.1602 0 -11.199 5.0391 -11.199 11.199 v 95.426 c 0 18.762 15.23 33.992 33.992 33.992 c 18.762 0 33.992 -15.23 33.992 -33.992 v -67.371 c 0 -6.1602 -4.9844 -11.199 -11.199 -11.199 z m 0 -67.199 c -6.1602 0 -11.199 5.0391 -11.199 11.199 v 33.602 c 0 6.1602 5.0391 11.199 11.199 11.199 s 11.199 -5.0391 11.199 -11.199 v -33.602 c 0 -6.1602 -4.9844 -11.199 -11.199 -11.199 z m 153.33 104.5 c 5.375 -12.543 8.2305 -26.152 8.2305 -40.207 v -63.84 c 0 -34.664 -12.602 -66.695 -35.504 -90.215 c -3.8086 -3.9219 -6.832 -8.3438 -9.0703 -13.047 c -0.11328000000000005 -0.22266000000000008 -0.22266000000000008 -0.50391 -0.3359400000000002 -0.72656 c -6.2734 -13.945 -5.6016 -30.352 2.7422 -43.902 c 14.055 -20.328 21.449 -44.129 21.449 -68.824 v -121.97 c 0 -10.527 -6.2734 -19.938 -16.016 -23.969 c -9.7422 -4.0312 -20.832 -1.8477000000000001 -28.281 5.6016 l -43.344 43.344 c -22.121 -6.4414 -45.191 -6.4414 -67.312 0 l -43.344 -43.348 c -7.4492 -7.4492 -18.535 -9.6328 -28.281 -5.6016 c -9.7422 4.0312 -16.016 13.441 -16.016 23.969 v 121.91 c 0 24.695 7.4492 48.496 21.449 68.824 c 8.3438 13.551 9.0156 29.961 2.7422 43.961 c -0.11328000000000005 0.22266000000000008 -0.22266000000000008 0.50391 -0.3359400000000002 0.72656 c -2.2383 4.7031 -5.207 9.1289 -9.0156 13.047 c -22.902 23.52 -35.504 55.551 -35.504 90.215 v 52.754 l -9.4062 -6.2734 c -5.9375 -3.9766 -9.5195 -10.641 -9.5195 -17.754 v -88.812 c 0 -29.121 -11.312 -56.449 -31.922 -77.055 l -21.113 -21.113 c -14.504 -14.504 -38.191 -14.504 -52.695 0 c -7.0547 7.0547 -10.922 16.406 -10.922 26.375 s 3.8633 19.32 10.922 26.375 l 24.922 24.922 c 4.0312 4.0312 6.2734 9.4062 6.2734 15.121 v 87.414 c 0 35.055 17.023 68.207 45.527 88.594 l 37.129 26.543 c -0.3359400000000002 2.3516 -0.50391 4.7031 -0.50391 7.1133 v 9.0156 c 0 11.199 9.0703 20.273 20.273 20.273 h 35.223 c 6.1602 0 11.199 -5.0391 11.199 -11.199 s -5.0391 -11.199 -11.199 -11.199 h -33.098 v -6.8867 c 0 -7.8398 3.1367 -15.008 8.3984 -20.328 c 3.0781 4.2578 6.4414 8.3984 10.246 12.207 c 4.3672 4.3672 11.426 4.4258 15.848 0.05468800000000004 c 4.3672 -4.3672 4.4258 -11.426 0.054687000000000034 -15.848 c -15.008 -15.121 -23.238 -35.113 -23.238 -56.391 v -63.84 c 0 -3.8086 0.22266000000000008 -7.6172 0.55859 -11.312 l 9.4062 9.4062 c 2.1836 2.1836 5.0391 3.3047 7.8945 3.3047 s 5.7109000000000005 -1.1211 7.8945 -3.3047 c 4.3672 -4.3672 4.3672 -11.48 0 -15.848 l -19.488 -19.488 c 1.7344 -4.9297 3.7539000000000002 -9.6875 6.1602 -14.281 l 17.023 17.023 c 2.1836 2.1836 5.0391 3.3047 7.8945 3.3047 c 2.8555 0 5.7109000000000005 -1.1211 7.8945 -3.3047 c 4.3672 -4.3672 4.3672 -11.48 0 -15.848 l -19.992 -19.992 c 1.2305 -1.457 2.4062 -2.9102 3.7539000000000002 -4.2578 c 2.0703 -2.1289 3.9219 -4.4258 5.7109000000000005 -6.7188 l 14.223 14.223 c 2.1836 2.1836 5.0391 3.3047 7.8945 3.3047 s 5.7109000000000005 -1.1211 7.8945 -3.3047 c 4.3672 -4.3672 4.3672 -11.48 0 -15.848 l -19.207 -19.207 c 6.0469 -18.93 3.9219 -40.039 -7.0547 -57.793 l -0.3359400000000002 -0.4492200000000002 c -11.535 -16.633 -17.641000000000002 -36.121 -17.641000000000002 -56.281 l 0.01562500000000001 -122.07 c 0 -1.9609 1.1758 -2.8555 2.1836 -3.3047 c 1.0078 -0.4492200000000002 2.4648 -0.6171900000000003 3.8633 0.78516 l 53.199 53.199 l 6.6641 -2.3516 c 21.617 -7.6719 44.406 -7.6719 66.023 0 l 6.6641 2.3516 l 53.199 -53.199 c 1.3984 -1.3984 2.8555 -1.1758 3.8633 -0.78516 s 2.1836 1.3438 2.1836 3.3047 l 0.0039060000000000032 121.91 c 0 20.215 -6.1055 39.648 -17.641000000000002 56.281 l -0.3359400000000002 0.50391 c -11.031 17.754 -13.16 38.863 -7.0547 57.793 l -19.207 19.207 c -4.3672 4.3672 -4.3672 11.48 0 15.848 c 2.1836 2.1836 5.0391 3.3047 7.8945 3.3047 s 5.7109000000000005 -1.1211 7.8945 -3.3047 l 14.223 -14.223 c 1.7344 2.2969 3.6406 4.5938 5.7109000000000005 6.7188 c 1.3438 1.3438 2.5195 2.8555 3.7539000000000002 4.2578 l -19.992 19.992 c -4.3672 4.3672 -4.3672 11.48 0 15.848 c 2.1836 2.1836 5.0391 3.3047 7.8945 3.3047 s 5.7109000000000005 -1.1211 7.8945 -3.3047 l 17.023 -17.023 c 2.4062 4.5938 4.4258 9.3516 6.1602 14.281 l -19.488 19.488 c -4.3672 4.3672 -4.3672 11.48 0 15.848 c 2.1836 2.1836 5.0391 3.3047 7.8945 3.3047 s 5.7109000000000005 -1.1211 7.8945 -3.3047 l 9.4062 -9.4062 c 0.3359400000000002 3.7539000000000002 0.55859 7.5039 0.55859 11.312 v 63.84 c 0 21.391000000000002 -8.3438 41.496 -23.465 56.617 c -4.3672 4.3672 -4.3672 11.48 0 15.848 c 2.1836 2.1836 5.0391 3.3047 7.8945 3.3047 c 2.8555 0 5.7109000000000005 -1.1211 7.8945 -3.3047 c 3.8633 -3.8633 7.3359000000000005 -8.0625 10.473 -12.434 c 5.2656 5.3203000000000005 8.3984 12.488 8.3984 20.328 v 6.8867 h -33.152 c -6.1602 0 -11.199 5.0391 -11.199 11.199 s 5.0391 11.199 11.199 11.199 h 35.223 c 11.199 0 20.273 -9.0703 20.273 -20.273 v -9.0156 c 0.5195299999999997 -15.738 -6.9297 -30.465 -19.023 -40.098 z m -278.15 11.48 l -32.48 -23.238 c -22.68 -16.238 -36.176 -42.504 -36.176 -70.391 v -87.418 c 0 -11.703 -4.5352 -22.68 -12.824 -30.969 l -24.922 -24.922 c -5.8242 -5.8242 -5.8242 -15.23 0 -21 c 5.6016 -5.6016 15.398 -5.6016 21 0 l 21.113 21.113 c 16.352 16.352 25.367 38.078 25.367 61.207 v 88.762 c 0 14.672 7.2812 28.281 19.434 36.398 l 23.352 15.625 c 1.3438 8.0625 3.5859 15.902 6.7773 23.406 c -4.1445 3.25 -7.7305 7.1133 -10.641 11.426 z m -33.992 -288.51 c 16.969 0 30.801 -13.832 30.801 -30.801 s -13.832 -30.801 -30.801 -30.801 s -30.801 13.832 -30.801 30.801 s 13.832 30.801 30.801 30.801 z m 0 -39.199 c 4.6484000000000005 0 8.3984 3.7539000000000002 8.3984 8.3984 c 0 4.6484000000000005 -3.7539000000000002 8.3984 -8.3984 8.3984 c -4.6484000000000005 0 -8.3984 -3.7539000000000002 -8.3984 -8.3984 c -0.0039060000000000032 -4.6484000000000005 3.75 -8.3984 8.3984 -8.3984 z m 4.8164 -126 c 7.7266 0 14 6.2734 14 14 c 0 7.7266 -6.2734 14 -14 14 s -14 -6.2734 -14 -14 c 0 -7.7305 6.2695 -14 14 -14 z m -101.19 425.6 c 7.7266 0 14 6.2734 14 14 c 0 7.7266 -6.2734 14 -14 14 c -7.7266 0 -14 -6.2734 -14 -14 c 0 -7.7266 6.2695 -14 14 -14 z m 449.79 -345.63 c 7.7266 0 14 6.2734 14 14 c 0 7.7266 -6.2734 14 -14 14 c -7.7266 0 -14 -6.2734 -14 -14 c 0 -7.7266 6.2734 -14 14 -14 z m -443.8 12.434 v 16.801 c 0 6.1602 5.0391 11.199 11.199 11.199 s 11.199 -5.0391 11.199 -11.199 v -16.801 h 16.801 c 6.1602 0 11.199 -5.0391 11.199 -11.199 s -5.0391 -11.199 -11.199 -11.199 h -16.801 v -16.801 c 0 -6.1602 -5.0391 -11.199 -11.199 -11.199 s -11.199 5.0391 -11.199 11.199 v 16.801 h -16.801 c -6.1602 0 -11.199 5.0391 -11.199 11.199 s 5.0391 11.199 11.199 11.199 z m 471.8 122.02 h -16.801 v -16.801 c 0 -6.1602 -5.0391 -11.199 -11.199 -11.199 c -6.1602 0 -11.199 5.0391 -11.199 11.199 v 16.801 h -16.801 c -6.1602 0 -11.199 5.0391 -11.199 11.199 c 0 6.1602 5.0391 11.199 11.199 11.199 h 16.801 v 16.801 c 0 6.1602 5.0391 11.199 11.199 11.199 c 6.1602 0 11.199 -5.0391 11.199 -11.199 v -16.801 h 16.801 c 6.1602 0 11.199 -5.0391 11.199 -11.199 c 0.0039060000000000032 -6.1602 -4.9805 -11.199 -11.199 -11.199 z" stroke-linecap="round" />
</g>
		<g transform="matrix(1 0 0 1 -292.7 356.02)"  >
<path style="stroke: none; stroke-width: 1; stroke-dasharray: none; stroke-linecap: butt; stroke-dashoffset: 0; stroke-linejoin: miter; stroke-miterlimit: 4; fill: rgb(114,74,169); fill-rule: nonzero; opacity: 1;"  transform=" translate(-10.08, 10.2)" d="m 18.766 -1.125 c -0.96875 0.5 -1.9805 0.875 -3.0312 1.125 c -1.043 0.25781 -2.1367 0.39062 -3.2812 0.39062 c -3.3984 0 -6.0898 -0.94531 -8.0781 -2.8438 c -1.9922 -1.9062 -2.9844 -4.4844 -2.9844 -7.7344 c 0 -3.2578 0.99219 -5.8359 2.9844 -7.7344 c 1.9883 -1.9062 4.6797 -2.8594 8.0781 -2.8594 c 1.1445 0 2.2383 0.13281 3.2812 0.39062 c 1.0508 0.25 2.0625 0.625 3.0312 1.125 v 4.2188 c -0.98047 -0.65625 -1.9453 -1.1406 -2.8906 -1.4531 c -0.94922 -0.3125 -1.9492 -0.46875 -3 -0.46875 c -1.875 0 -3.3516 0.60547 -4.4219 1.8125 c -1.0742 1.1992 -1.6094 2.8555 -1.6094 4.9688 c 0 2.1055 0.53516 3.7617 1.6094 4.9688 c 1.0703 1.1992 2.5469 1.7969 4.4219 1.7969 c 1.0508 0 2.0508 -0.14844 3 -0.45312 c 0.94531 -0.3125 1.9102 -0.80078 2.8906 -1.4688 z" stroke-linecap="round" />
</g>
		<g transform="matrix(1 0 0 1 -274.18 358.37)"  >
<path style="stroke: none; stroke-width: 1; stroke-dasharray: none; stroke-linecap: butt; stroke-dashoffset: 0; stroke-linejoin: miter; stroke-miterlimit: 4; fill: rgb(114,74,169); fill-rule: nonzero; opacity: 1;"  transform=" translate(-8.05, 7.84)" d="m 13.734 -11.141 c -0.4375 -0.19531 -0.87109 -0.34375 -1.2969 -0.4375 c -0.41797 -0.10156 -0.83984 -0.15625 -1.2656 -0.15625 c -1.2617 0 -2.2305 0.40625 -2.9062 1.2188 c -0.67969 0.80469 -1.0156 1.9531 -1.0156 3.4531 v 7.0625 h -4.8906 v -15.312 h 4.8906 v 2.5156 c 0.625 -1 1.3438 -1.7266 2.1562 -2.1875 c 0.82031 -0.46875 1.8008 -0.70312 2.9375 -0.70312 c 0.16406 0 0.34375 0.011719 0.53125 0.03125 c 0.19531 0.011719 0.47656 0.039062 0.84375 0.078125 z" stroke-linecap="round" />
</g>
		<g transform="matrix(1 0 0 1 -258.99 358.57)"  >
<path style="stroke: none; stroke-width: 1; stroke-dasharray: none; stroke-linecap: butt; stroke-dashoffset: 0; stroke-linejoin: miter; stroke-miterlimit: 4; fill: rgb(114,74,169); fill-rule: nonzero; opacity: 1;"  transform=" translate(-9.42, 7.65)" d="m 17.641 -7.7031 v 1.4062 h -11.453 c 0.125 1.1484 0.53906 2.0078 1.25 2.5781 c 0.70703 0.57422 1.7031 0.85938 2.9844 0.85938 c 1.0312 0 2.082 -0.14844 3.1562 -0.45312 c 1.082 -0.3125 2.1914 -0.77344 3.3281 -1.3906 v 3.7656 c -1.1562 0.4375 -2.3125 0.76562 -3.4688 0.98438 c -1.1562 0.22656 -2.3125 0.34375 -3.4688 0.34375 c -2.7734 0 -4.9297 -0.70312 -6.4688 -2.1094 c -1.5312 -1.4062 -2.2969 -3.3789 -2.2969 -5.9219 c 0 -2.5 0.75391 -4.4609 2.2656 -5.8906 c 1.5078 -1.4375 3.582 -2.1562 6.2188 -2.1562 c 2.4062 0 4.332 0.73047 5.7812 2.1875 c 1.4453 1.4492 2.1719 3.3828 2.1719 5.7969 z m -5.0312 -1.625 c 0 -0.92578 -0.27344 -1.6719 -0.8125 -2.2344 c -0.54297 -0.57031 -1.25 -0.85938 -2.125 -0.85938 c -0.94922 0 -1.7188 0.26562 -2.3125 0.79688 s -0.96484 1.2969 -1.1094 2.2969 z" stroke-linecap="round" />
</g>
		<g transform="matrix(1 0 0 1 -240.49 358.57)"  >
<path style="stroke: none; stroke-width: 1; stroke-dasharray: none; stroke-linecap: butt; stroke-dashoffset: 0; stroke-linejoin: miter; stroke-miterlimit: 4; fill: rgb(114,74,169); fill-rule: nonzero; opacity: 1;"  transform=" translate(-8.95, 7.65)" d="m 9.2188 -6.8906 c -1.0234 0 -1.793 0.17188 -2.3125 0.51562 c -0.51172 0.34375 -0.76562 0.85547 -0.76562 1.5312 c 0 0.625 0.20703 1.1172 0.625 1.4688 c 0.41406 0.34375 0.98828 0.51562 1.7188 0.51562 c 0.92578 0 1.7031 -0.32812 2.3281 -0.98438 c 0.63281 -0.66406 0.95312 -1.4922 0.95312 -2.4844 v -0.5625 z m 7.4688 -1.8438 v 8.7344 h -4.9219 v -2.2656 c -0.65625 0.92969 -1.3984 1.6055 -2.2188 2.0312 c -0.82422 0.41406 -1.8242 0.625 -3 0.625 c -1.5859 0 -2.8711 -0.45703 -3.8594 -1.375 c -0.99219 -0.92578 -1.4844 -2.1289 -1.4844 -3.6094 c 0 -1.7891 0.61328 -3.1016 1.8438 -3.9375 c 1.2383 -0.84375 3.1797 -1.2656 5.8281 -1.2656 h 2.8906 v -0.39062 c 0 -0.76953 -0.30859 -1.332 -0.92188 -1.6875 c -0.61719 -0.36328 -1.5703 -0.54688 -2.8594 -0.54688 c -1.0547 0 -2.0312 0.10547 -2.9375 0.3125 c -0.89844 0.21094 -1.7305 0.52344 -2.5 0.9375 v -3.7344 c 1.0391 -0.25 2.0859 -0.44141 3.1406 -0.57812 c 1.0625 -0.13281 2.125 -0.20312 3.1875 -0.20312 c 2.7578 0 4.75 0.54688 5.9688 1.6406 c 1.2266 1.0859 1.8438 2.8555 1.8438 5.3125 z" stroke-linecap="round" />
</g>
		<g transform="matrix(1 0 0 1 -223.97 356.39)"  >
<path style="stroke: none; stroke-width: 1; stroke-dasharray: none; stroke-linecap: butt; stroke-dashoffset: 0; stroke-linejoin: miter; stroke-miterlimit: 4; fill: rgb(114,74,169); fill-rule: nonzero; opacity: 1;"  transform=" translate(-6.56, 9.83)" d="m 7.7031 -19.656 v 4.3438 h 5.0469 v 3.5 h -5.0469 v 6.5 c 0 0.71094 0.14062 1.1875 0.42188 1.4375 s 0.83594 0.375 1.6719 0.375 h 2.5156 v 3.5 h -4.1875 c -1.9375 0 -3.3125 -0.39844 -4.125 -1.2031 c -0.80469 -0.8125 -1.2031 -2.1797 -1.2031 -4.1094 v -6.5 h -2.4219 v -3.5 h 2.4219 v -4.3438 z" stroke-linecap="round" />
</g>
		<g transform="matrix(1 0 0 1 -207.72 358.57)"  >
<path style="stroke: none; stroke-width: 1; stroke-dasharray: none; stroke-linecap: butt; stroke-dashoffset: 0; stroke-linejoin: miter; stroke-miterlimit: 4; fill: rgb(114,74,169); fill-rule: nonzero; opacity: 1;"  transform=" translate(-9.42, 7.65)" d="m 17.641 -7.7031 v 1.4062 h -11.453 c 0.125 1.1484 0.53906 2.0078 1.25 2.5781 c 0.70703 0.57422 1.7031 0.85938 2.9844 0.85938 c 1.0312 0 2.082 -0.14844 3.1562 -0.45312 c 1.082 -0.3125 2.1914 -0.77344 3.3281 -1.3906 v 3.7656 c -1.1562 0.4375 -2.3125 0.76562 -3.4688 0.98438 c -1.1562 0.22656 -2.3125 0.34375 -3.4688 0.34375 c -2.7734 0 -4.9297 -0.70312 -6.4688 -2.1094 c -1.5312 -1.4062 -2.2969 -3.3789 -2.2969 -5.9219 c 0 -2.5 0.75391 -4.4609 2.2656 -5.8906 c 1.5078 -1.4375 3.582 -2.1562 6.2188 -2.1562 c 2.4062 0 4.332 0.73047 5.7812 2.1875 c 1.4453 1.4492 2.1719 3.3828 2.1719 5.7969 z m -5.0312 -1.625 c 0 -0.92578 -0.27344 -1.6719 -0.8125 -2.2344 c -0.54297 -0.57031 -1.25 -0.85938 -2.125 -0.85938 c -0.94922 0 -1.7188 0.26562 -2.3125 0.79688 s -0.96484 1.2969 -1.1094 2.2969 z" stroke-linecap="round" />
</g>
		<g transform="matrix(1 0 0 1 -188.68 355.77)"  >
<path style="stroke: none; stroke-width: 1; stroke-dasharray: none; stroke-linecap: butt; stroke-dashoffset: 0; stroke-linejoin: miter; stroke-miterlimit: 4; fill: rgb(114,74,169); fill-rule: nonzero; opacity: 1;"  transform=" translate(-9.48, 10.45)" d="m 12.766 -13.078 v -8.2031 h 4.9219 v 21.281 h -4.9219 v -2.2188 c -0.66797 0.90625 -1.4062 1.5703 -2.2188 1.9844 s -1.7578 0.625 -2.8281 0.625 c -1.8867 0 -3.4336 -0.75 -4.6406 -2.25 c -1.2109 -1.5 -1.8125 -3.4258 -1.8125 -5.7812 c 0 -2.3633 0.60156 -4.2969 1.8125 -5.7969 c 1.207 -1.5 2.7539 -2.25 4.6406 -2.25 c 1.0625 0 2 0.21484 2.8125 0.64062 c 0.82031 0.42969 1.5664 1.0859 2.2344 1.9688 z m -3.2188 9.9219 c 1.0391 0 1.8359 -0.37891 2.3906 -1.1406 c 0.55078 -0.76953 0.82812 -1.8828 0.82812 -3.3438 c 0 -1.457 -0.27734 -2.5664 -0.82812 -3.3281 c -0.55469 -0.76953 -1.3516 -1.1562 -2.3906 -1.1562 c -1.043 0 -1.8398 0.38672 -2.3906 1.1562 c -0.55469 0.76172 -0.82812 1.8711 -0.82812 3.3281 c 0 1.4609 0.27344 2.5742 0.82812 3.3438 c 0.55078 0.76172 1.3477 1.1406 2.3906 1.1406 z" stroke-linecap="round" />
</g>
		<g transform="matrix(1 0 0 1 -157.8 355.77)"  >
<path style="stroke: none; stroke-width: 1; stroke-dasharray: none; stroke-linecap: butt; stroke-dashoffset: 0; stroke-linejoin: miter; stroke-miterlimit: 4; fill: rgb(114,74,169); fill-rule: nonzero; opacity: 1;"  transform=" translate(-10.57, 10.45)" d="m 10.5 -3.1562 c 1.0508 0 1.8516 -0.37891 2.4062 -1.1406 c 0.55078 -0.76953 0.82812 -1.8828 0.82812 -3.3438 c 0 -1.457 -0.27734 -2.5664 -0.82812 -3.3281 c -0.55469 -0.76953 -1.3555 -1.1562 -2.4062 -1.1562 c -1.0547 0 -1.8594 0.38672 -2.4219 1.1562 c -0.55469 0.77344 -0.82812 1.8828 -0.82812 3.3281 c 0 1.4492 0.27344 2.5586 0.82812 3.3281 c 0.5625 0.77344 1.3672 1.1562 2.4219 1.1562 z m -3.25 -9.9219 c 0.67578 -0.88281 1.4219 -1.5391 2.2344 -1.9688 c 0.82031 -0.42578 1.7656 -0.64062 2.8281 -0.64062 c 1.8945 0 3.4453 0.75 4.6562 2.25 c 1.207 1.5 1.8125 3.4336 1.8125 5.7969 c 0 2.3555 -0.60547 4.2812 -1.8125 5.7812 c -1.2109 1.5 -2.7617 2.25 -4.6562 2.25 c -1.0625 0 -2.0078 -0.21094 -2.8281 -0.625 c -0.8125 -0.42578 -1.5586 -1.0859 -2.2344 -1.9844 v 2.2188 h -4.8906 v -21.281 h 4.8906 z" stroke-linecap="round" />
</g>
		<g transform="matrix(1 0 0 1 -139.28 361.58)"  >
<path style="stroke: none; stroke-width: 1; stroke-dasharray: none; stroke-linecap: butt; stroke-dashoffset: 0; stroke-linejoin: miter; stroke-miterlimit: 4; fill: rgb(114,74,169); fill-rule: nonzero; opacity: 1;"  transform=" translate(-9.05, 4.63)" d="m 0.34375 -15.312 h 4.8906 l 4.125 10.391 l 3.5 -10.391 h 4.8906 l -6.4375 16.766 c -0.64844 1.6953 -1.4023 2.8828 -2.2656 3.5625 c -0.86719 0.6875 -2 1.0312 -3.4062 1.0312 h -2.8438 v -3.2188 h 1.5312 c 0.83203 0 1.4375 -0.13672 1.8125 -0.40625 c 0.38281 -0.26172 0.67969 -0.73047 0.89062 -1.4062 l 0.14062 -0.42188 z" stroke-linecap="round" />
</g>
		<g transform="matrix(1 0 0 1 -110.24 356.02)"  >
<path style="stroke: none; stroke-width: 1; stroke-dasharray: none; stroke-linecap: butt; stroke-dashoffset: 0; stroke-linejoin: miter; stroke-miterlimit: 4; fill: rgb(114,74,169); fill-rule: nonzero; opacity: 1;"  transform=" translate(-10.08, 10.2)" d="m 18.766 -1.125 c -0.96875 0.5 -1.9805 0.875 -3.0312 1.125 c -1.043 0.25781 -2.1367 0.39062 -3.2812 0.39062 c -3.3984 0 -6.0898 -0.94531 -8.0781 -2.8438 c -1.9922 -1.9062 -2.9844 -4.4844 -2.9844 -7.7344 c 0 -3.2578 0.99219 -5.8359 2.9844 -7.7344 c 1.9883 -1.9062 4.6797 -2.8594 8.0781 -2.8594 c 1.1445 0 2.2383 0.13281 3.2812 0.39062 c 1.0508 0.25 2.0625 0.625 3.0312 1.125 v 4.2188 c -0.98047 -0.65625 -1.9453 -1.1406 -2.8906 -1.4531 c -0.94922 -0.3125 -1.9492 -0.46875 -3 -0.46875 c -1.875 0 -3.3516 0.60547 -4.4219 1.8125 c -1.0742 1.1992 -1.6094 2.8555 -1.6094 4.9688 c 0 2.1055 0.53516 3.7617 1.6094 4.9688 c 1.0703 1.1992 2.5469 1.7969 4.4219 1.7969 c 1.0508 0 2.0508 -0.14844 3 -0.45312 c 0.94531 -0.3125 1.9102 -0.80078 2.8906 -1.4688 z" stroke-linecap="round" />
</g>
		<g transform="matrix(1 0 0 1 -91.73 358.37)"  >
<path style="stroke: none; stroke-width: 1; stroke-dasharray: none; stroke-linecap: butt; stroke-dashoffset: 0; stroke-linejoin: miter; stroke-miterlimit: 4; fill: rgb(114,74,169); fill-rule: nonzero; opacity: 1;"  transform=" translate(-8.05, 7.84)" d="m 13.734 -11.141 c -0.4375 -0.19531 -0.87109 -0.34375 -1.2969 -0.4375 c -0.41797 -0.10156 -0.83984 -0.15625 -1.2656 -0.15625 c -1.2617 0 -2.2305 0.40625 -2.9062 1.2188 c -0.67969 0.80469 -1.0156 1.9531 -1.0156 3.4531 v 7.0625 h -4.8906 v -15.312 h 4.8906 v 2.5156 c 0.625 -1 1.3438 -1.7266 2.1562 -2.1875 c 0.82031 -0.46875 1.8008 -0.70312 2.9375 -0.70312 c 0.16406 0 0.34375 0.011719 0.53125 0.03125 c 0.19531 0.011719 0.47656 0.039062 0.84375 0.078125 z" stroke-linecap="round" />
</g>
		<g transform="matrix(1 0 0 1 -76.92 361.58)"  >
<path style="stroke: none; stroke-width: 1; stroke-dasharray: none; stroke-linecap: butt; stroke-dashoffset: 0; stroke-linejoin: miter; stroke-miterlimit: 4; fill: rgb(114,74,169); fill-rule: nonzero; opacity: 1;"  transform=" translate(-9.05, 4.63)" d="m 0.34375 -15.312 h 4.8906 l 4.125 10.391 l 3.5 -10.391 h 4.8906 l -6.4375 16.766 c -0.64844 1.6953 -1.4023 2.8828 -2.2656 3.5625 c -0.86719 0.6875 -2 1.0312 -3.4062 1.0312 h -2.8438 v -3.2188 h 1.5312 c 0.83203 0 1.4375 -0.13672 1.8125 -0.40625 c 0.38281 -0.26172 0.67969 -0.73047 0.89062 -1.4062 l 0.14062 -0.42188 z" stroke-linecap="round" />
</g>
		<g transform="matrix(1 0 0 1 -59.31 358.57)"  >
<path style="stroke: none; stroke-width: 1; stroke-dasharray: none; stroke-linecap: butt; stroke-dashoffset: 0; stroke-linejoin: miter; stroke-miterlimit: 4; fill: rgb(114,74,169); fill-rule: nonzero; opacity: 1;"  transform=" translate(-8.4, 7.65)" d="m 14.312 -14.828 v 3.7188 c -1.043 -0.4375 -2.0547 -0.76562 -3.0312 -0.98438 c -0.98047 -0.21875 -1.9023 -0.32812 -2.7656 -0.32812 c -0.92969 0 -1.6211 0.11719 -2.0781 0.34375 c -0.44922 0.23047 -0.67188 0.58984 -0.67188 1.0781 c 0 0.38672 0.17188 0.68359 0.51562 0.89062 c 0.34375 0.21094 0.95703 0.36719 1.8438 0.46875 l 0.85938 0.125 c 2.5078 0.32422 4.1953 0.85156 5.0625 1.5781 c 0.86328 0.73047 1.2969 1.8711 1.2969 3.4219 c 0 1.6367 -0.60547 2.8672 -1.8125 3.6875 c -1.1992 0.8125 -2.9922 1.2188 -5.375 1.2188 c -1.0234 0 -2.0742 -0.078125 -3.1562 -0.23438 c -1.0742 -0.15625 -2.1797 -0.39453 -3.3125 -0.71875 v -3.7188 c 0.96875 0.48047 1.9609 0.83984 2.9844 1.0781 c 1.0312 0.23047 2.0781 0.34375 3.1406 0.34375 c 0.95703 0 1.6758 -0.12891 2.1562 -0.39062 c 0.47656 -0.26953 0.71875 -0.66406 0.71875 -1.1875 c 0 -0.4375 -0.16797 -0.75781 -0.5 -0.96875 c -0.33594 -0.21875 -0.99609 -0.38281 -1.9844 -0.5 l -0.85938 -0.10938 c -2.1797 -0.26953 -3.7031 -0.77344 -4.5781 -1.5156 c -0.875 -0.73828 -1.3125 -1.8594 -1.3125 -3.3594 c 0 -1.625 0.55078 -2.8281 1.6562 -3.6094 c 1.1133 -0.78906 2.8203 -1.1875 5.125 -1.1875 c 0.89453 0 1.8359 0.074219 2.8281 0.21875 c 1 0.13672 2.082 0.35156 3.25 0.64062 z" stroke-linecap="round" />
</g>
		<g transform="matrix(1 0 0 1 -44.49 356.39)"  >
<path style="stroke: none; stroke-width: 1; stroke-dasharray: none; stroke-linecap: butt; stroke-dashoffset: 0; stroke-linejoin: miter; stroke-miterlimit: 4; fill: rgb(114,74,169); fill-rule: nonzero; opacity: 1;"  transform=" translate(-6.56, 9.83)" d="m 7.7031 -19.656 v 4.3438 h 5.0469 v 3.5 h -5.0469 v 6.5 c 0 0.71094 0.14062 1.1875 0.42188 1.4375 s 0.83594 0.375 1.6719 0.375 h 2.5156 v 3.5 h -4.1875 c -1.9375 0 -3.3125 -0.39844 -4.125 -1.2031 c -0.80469 -0.8125 -1.2031 -2.1797 -1.2031 -4.1094 v -6.5 h -2.4219 v -3.5 h 2.4219 v -4.3438 z" stroke-linecap="round" />
</g>
		<g transform="matrix(1 0 0 1 -28.72 358.57)"  >
<path style="stroke: none; stroke-width: 1; stroke-dasharray: none; stroke-linecap: butt; stroke-dashoffset: 0; stroke-linejoin: miter; stroke-miterlimit: 4; fill: rgb(114,74,169); fill-rule: nonzero; opacity: 1;"  transform=" translate(-8.95, 7.65)" d="m 9.2188 -6.8906 c -1.0234 0 -1.793 0.17188 -2.3125 0.51562 c -0.51172 0.34375 -0.76562 0.85547 -0.76562 1.5312 c 0 0.625 0.20703 1.1172 0.625 1.4688 c 0.41406 0.34375 0.98828 0.51562 1.7188 0.51562 c 0.92578 0 1.7031 -0.32812 2.3281 -0.98438 c 0.63281 -0.66406 0.95312 -1.4922 0.95312 -2.4844 v -0.5625 z m 7.4688 -1.8438 v 8.7344 h -4.9219 v -2.2656 c -0.65625 0.92969 -1.3984 1.6055 -2.2188 2.0312 c -0.82422 0.41406 -1.8242 0.625 -3 0.625 c -1.5859 0 -2.8711 -0.45703 -3.8594 -1.375 c -0.99219 -0.92578 -1.4844 -2.1289 -1.4844 -3.6094 c 0 -1.7891 0.61328 -3.1016 1.8438 -3.9375 c 1.2383 -0.84375 3.1797 -1.2656 5.8281 -1.2656 h 2.8906 v -0.39062 c 0 -0.76953 -0.30859 -1.332 -0.92188 -1.6875 c -0.61719 -0.36328 -1.5703 -0.54688 -2.8594 -0.54688 c -1.0547 0 -2.0312 0.10547 -2.9375 0.3125 c -0.89844 0.21094 -1.7305 0.52344 -2.5 0.9375 v -3.7344 c 1.0391 -0.25 2.0859 -0.44141 3.1406 -0.57812 c 1.0625 -0.13281 2.125 -0.20312 3.1875 -0.20312 c 2.7578 0 4.75 0.54688 5.9688 1.6406 c 1.2266 1.0859 1.8438 2.8555 1.8438 5.3125 z" stroke-linecap="round" />
</g>
		<g transform="matrix(1 0 0 1 -13.96 355.57)"  >
<path style="stroke: none; stroke-width: 1; stroke-dasharray: none; stroke-linecap: butt; stroke-dashoffset: 0; stroke-linejoin: miter; stroke-miterlimit: 4; fill: rgb(114,74,169); fill-rule: nonzero; opacity: 1;"  transform=" translate(-4.8, 10.64)" d="m 2.3594 -21.281 h 4.8906 v 21.281 h -4.8906 z" stroke-linecap="round" />
</g>
		<g transform="matrix(1 0 0 1 11.74 356.02)"  >
<path style="stroke: none; stroke-width: 1; stroke-dasharray: none; stroke-linecap: butt; stroke-dashoffset: 0; stroke-linejoin: miter; stroke-miterlimit: 4; fill: rgb(114,74,169); fill-rule: nonzero; opacity: 1;"  transform=" translate(-11.16, 10.2)" d="m 20.922 -1.5156 c -1.3125 0.63672 -2.6797 1.1172 -4.0938 1.4375 c -1.4062 0.3125 -2.8672 0.46875 -4.375 0.46875 c -3.3984 0 -6.0898 -0.94531 -8.0781 -2.8438 c -1.9922 -1.9062 -2.9844 -4.4844 -2.9844 -7.7344 c 0 -3.2891 1.0078 -5.8789 3.0312 -7.7656 c 2.0312 -1.8828 4.8047 -2.8281 8.3281 -2.8281 c 1.3516 0 2.6484 0.13281 3.8906 0.39062 c 1.25 0.25 2.4258 0.625 3.5312 1.125 v 4.2188 c -1.1484 -0.64453 -2.2812 -1.125 -3.4062 -1.4375 c -1.125 -0.32031 -2.25 -0.48438 -3.375 -0.48438 c -2.1055 0 -3.7266 0.58984 -4.8594 1.7656 c -1.125 1.168 -1.6875 2.8398 -1.6875 5.0156 c 0 2.1562 0.54688 3.8242 1.6406 5 c 1.0938 1.1797 2.6445 1.7656 4.6562 1.7656 c 0.53906 0 1.0469 -0.03125 1.5156 -0.09375 c 0.47656 -0.070313 0.89844 -0.17969 1.2656 -0.32812 v -3.9688 h -3.2031 v -3.5156 h 8.2031 z" stroke-linecap="round" />
</g>
		<g transform="matrix(1 0 0 1 33.17 358.57)"  >
<path style="stroke: none; stroke-width: 1; stroke-dasharray: none; stroke-linecap: butt; stroke-dashoffset: 0; stroke-linejoin: miter; stroke-miterlimit: 4; fill: rgb(114,74,169); fill-rule: nonzero; opacity: 1;"  transform=" translate(-9.62, 7.65)" d="m 9.6406 -12.188 c -1.0859 0 -1.9141 0.39062 -2.4844 1.1719 c -0.57422 0.78125 -0.85938 1.9062 -0.85938 3.375 s 0.28516 2.5938 0.85938 3.375 c 0.57031 0.77344 1.3984 1.1562 2.4844 1.1562 c 1.0625 0 1.875 -0.38281 2.4375 -1.1562 c 0.57031 -0.78125 0.85938 -1.9062 0.85938 -3.375 s -0.28906 -2.5938 -0.85938 -3.375 c -0.5625 -0.78125 -1.375 -1.1719 -2.4375 -1.1719 z m 0 -3.5 c 2.6328 0 4.6914 0.71484 6.1719 2.1406 c 1.4766 1.418 2.2188 3.3867 2.2188 5.9062 c 0 2.5117 -0.74219 4.4805 -2.2188 5.9062 c -1.4805 1.418 -3.5391 2.125 -6.1719 2.125 c -2.6484 0 -4.7148 -0.70703 -6.2031 -2.125 c -1.4922 -1.4258 -2.2344 -3.3945 -2.2344 -5.9062 c 0 -2.5195 0.74219 -4.4883 2.2344 -5.9062 c 1.4883 -1.4258 3.5547 -2.1406 6.2031 -2.1406 z" stroke-linecap="round" />
</g>
		<g transform="matrix(1 0 0 1 50.84 358.37)"  >
<path style="stroke: none; stroke-width: 1; stroke-dasharray: none; stroke-linecap: butt; stroke-dashoffset: 0; stroke-linejoin: miter; stroke-miterlimit: 4; fill: rgb(114,74,169); fill-rule: nonzero; opacity: 1;"  transform=" translate(-8.05, 7.84)" d="m 13.734 -11.141 c -0.4375 -0.19531 -0.87109 -0.34375 -1.2969 -0.4375 c -0.41797 -0.10156 -0.83984 -0.15625 -1.2656 -0.15625 c -1.2617 0 -2.2305 0.40625 -2.9062 1.2188 c -0.67969 0.80469 -1.0156 1.9531 -1.0156 3.4531 v 7.0625 h -4.8906 v -15.312 h 4.8906 v 2.5156 c 0.625 -1 1.3438 -1.7266 2.1562 -2.1875 c 0.82031 -0.46875 1.8008 -0.70312 2.9375 -0.70312 c 0.16406 0 0.34375 0.011719 0.53125 0.03125 c 0.19531 0.011719 0.47656 0.039062 0.84375 0.078125 z" stroke-linecap="round" />
</g>
		<g transform="matrix(1 0 0 1 66.08 355.77)"  >
<path style="stroke: none; stroke-width: 1; stroke-dasharray: none; stroke-linecap: butt; stroke-dashoffset: 0; stroke-linejoin: miter; stroke-miterlimit: 4; fill: rgb(114,74,169); fill-rule: nonzero; opacity: 1;"  transform=" translate(-9.48, 10.45)" d="m 12.766 -13.078 v -8.2031 h 4.9219 v 21.281 h -4.9219 v -2.2188 c -0.66797 0.90625 -1.4062 1.5703 -2.2188 1.9844 s -1.7578 0.625 -2.8281 0.625 c -1.8867 0 -3.4336 -0.75 -4.6406 -2.25 c -1.2109 -1.5 -1.8125 -3.4258 -1.8125 -5.7812 c 0 -2.3633 0.60156 -4.2969 1.8125 -5.7969 c 1.207 -1.5 2.7539 -2.25 4.6406 -2.25 c 1.0625 0 2 0.21484 2.8125 0.64062 c 0.82031 0.42969 1.5664 1.0859 2.2344 1.9688 z m -3.2188 9.9219 c 1.0391 0 1.8359 -0.37891 2.3906 -1.1406 c 0.55078 -0.76953 0.82812 -1.8828 0.82812 -3.3438 c 0 -1.457 -0.27734 -2.5664 -0.82812 -3.3281 c -0.55469 -0.76953 -1.3516 -1.1562 -2.3906 -1.1562 c -1.043 0 -1.8398 0.38672 -2.3906 1.1562 c -0.55469 0.76172 -0.82812 1.8711 -0.82812 3.3281 c 0 1.4609 0.27344 2.5742 0.82812 3.3438 c 0.55078 0.76172 1.3477 1.1406 2.3906 1.1406 z" stroke-linecap="round" />
</g>
		<g transform="matrix(1 0 0 1 86.26 358.57)"  >
<path style="stroke: none; stroke-width: 1; stroke-dasharray: none; stroke-linecap: butt; stroke-dashoffset: 0; stroke-linejoin: miter; stroke-miterlimit: 4; fill: rgb(114,74,169); fill-rule: nonzero; opacity: 1;"  transform=" translate(-9.62, 7.65)" d="m 9.6406 -12.188 c -1.0859 0 -1.9141 0.39062 -2.4844 1.1719 c -0.57422 0.78125 -0.85938 1.9062 -0.85938 3.375 s 0.28516 2.5938 0.85938 3.375 c 0.57031 0.77344 1.3984 1.1562 2.4844 1.1562 c 1.0625 0 1.875 -0.38281 2.4375 -1.1562 c 0.57031 -0.78125 0.85938 -1.9062 0.85938 -3.375 s -0.28906 -2.5938 -0.85938 -3.375 c -0.5625 -0.78125 -1.375 -1.1719 -2.4375 -1.1719 z m 0 -3.5 c 2.6328 0 4.6914 0.71484 6.1719 2.1406 c 1.4766 1.418 2.2188 3.3867 2.2188 5.9062 c 0 2.5117 -0.74219 4.4805 -2.2188 5.9062 c -1.4805 1.418 -3.5391 2.125 -6.1719 2.125 c -2.6484 0 -4.7148 -0.70703 -6.2031 -2.125 c -1.4922 -1.4258 -2.2344 -3.3945 -2.2344 -5.9062 c 0 -2.5195 0.74219 -4.4883 2.2344 -5.9062 c 1.4883 -1.4258 3.5547 -2.1406 6.2031 -2.1406 z" stroke-linecap="round" />
</g>
		<g transform="matrix(1 0 0 1 105.94 358.37)"  >
<path style="stroke: none; stroke-width: 1; stroke-dasharray: none; stroke-linecap: butt; stroke-dashoffset: 0; stroke-linejoin: miter; stroke-miterlimit: 4; fill: rgb(114,74,169); fill-rule: nonzero; opacity: 1;"  transform=" translate(-10.05, 7.84)" d="m 17.75 -9.3281 v 9.3281 h -4.9219 v -7.1406 c 0 -1.3203 -0.03125 -2.2344 -0.09375 -2.7344 s -0.16797 -0.86719 -0.3125 -1.1094 c -0.1875 -0.3125 -0.44922 -0.55469 -0.78125 -0.73438 c -0.32422 -0.17578 -0.69531 -0.26562 -1.1094 -0.26562 c -1.0234 0 -1.8242 0.39844 -2.4062 1.1875 c -0.58594 0.78125 -0.875 1.8711 -0.875 3.2656 v 7.5312 h -4.8906 v -15.312 h 4.8906 v 2.2344 c 0.73828 -0.88281 1.5195 -1.5391 2.3438 -1.9688 c 0.83203 -0.42578 1.75 -0.64062 2.75 -0.64062 c 1.7695 0 3.1133 0.54688 4.0312 1.6406 c 0.91406 1.0859 1.375 2.6562 1.375 4.7188 z" stroke-linecap="round" />
</g>
		<g transform="matrix(1 0 0 1 -296.3 383.57)"  >
<path style="stroke: none; stroke-width: 1; stroke-dasharray: none; stroke-linecap: butt; stroke-dashoffset: 0; stroke-linejoin: miter; stroke-miterlimit: 4; fill: rgb(114,74,169); fill-rule: nonzero; opacity: 1;"  transform=" translate(-6.48, 10.64)" d="m 12.422 -21.281 v 3.2188 h -2.7031 c -0.6875 0 -1.1719 0.125 -1.4531 0.375 c -0.27344 0.25 -0.40625 0.6875 -0.40625 1.3125 v 1.0625 h 4.1875 v 3.5 h -4.1875 v 11.812 h -4.8906 v -11.812 h -2.4375 v -3.5 h 2.4375 v -1.0625 c 0 -1.6641 0.46094 -2.8984 1.3906 -3.7031 c 0.92578 -0.80078 2.3672 -1.2031 4.3281 -1.2031 z" stroke-linecap="round" />
</g>
		<g transform="matrix(1 0 0 1 -282.54 386.37)"  >
<path style="stroke: none; stroke-width: 1; stroke-dasharray: none; stroke-linecap: butt; stroke-dashoffset: 0; stroke-linejoin: miter; stroke-miterlimit: 4; fill: rgb(114,74,169); fill-rule: nonzero; opacity: 1;"  transform=" translate(-8.05, 7.84)" d="m 13.734 -11.141 c -0.4375 -0.19531 -0.87109 -0.34375 -1.2969 -0.4375 c -0.41797 -0.10156 -0.83984 -0.15625 -1.2656 -0.15625 c -1.2617 0 -2.2305 0.40625 -2.9062 1.2188 c -0.67969 0.80469 -1.0156 1.9531 -1.0156 3.4531 v 7.0625 h -4.8906 v -15.312 h 4.8906 v 2.5156 c 0.625 -1 1.3438 -1.7266 2.1562 -2.1875 c 0.82031 -0.46875 1.8008 -0.70312 2.9375 -0.70312 c 0.16406 0 0.34375 0.011719 0.53125 0.03125 c 0.19531 0.011719 0.47656 0.039062 0.84375 0.078125 z" stroke-linecap="round" />
</g>
		<g transform="matrix(1 0 0 1 -267.17 386.57)"  >
<path style="stroke: none; stroke-width: 1; stroke-dasharray: none; stroke-linecap: butt; stroke-dashoffset: 0; stroke-linejoin: miter; stroke-miterlimit: 4; fill: rgb(114,74,169); fill-rule: nonzero; opacity: 1;"  transform=" translate(-9.62, 7.65)" d="m 9.6406 -12.188 c -1.0859 0 -1.9141 0.39062 -2.4844 1.1719 c -0.57422 0.78125 -0.85938 1.9062 -0.85938 3.375 s 0.28516 2.5938 0.85938 3.375 c 0.57031 0.77344 1.3984 1.1562 2.4844 1.1562 c 1.0625 0 1.875 -0.38281 2.4375 -1.1562 c 0.57031 -0.78125 0.85938 -1.9062 0.85938 -3.375 s -0.28906 -2.5938 -0.85938 -3.375 c -0.5625 -0.78125 -1.375 -1.1719 -2.4375 -1.1719 z m 0 -3.5 c 2.6328 0 4.6914 0.71484 6.1719 2.1406 c 1.4766 1.418 2.2188 3.3867 2.2188 5.9062 c 0 2.5117 -0.74219 4.4805 -2.2188 5.9062 c -1.4805 1.418 -3.5391 2.125 -6.1719 2.125 c -2.6484 0 -4.7148 -0.70703 -6.2031 -2.125 c -1.4922 -1.4258 -2.2344 -3.3945 -2.2344 -5.9062 c 0 -2.5195 0.74219 -4.4883 2.2344 -5.9062 c 1.4883 -1.4258 3.5547 -2.1406 6.2031 -2.1406 z" stroke-linecap="round" />
</g>
		<g transform="matrix(1 0 0 1 -242.9 386.37)"  >
<path style="stroke: none; stroke-width: 1; stroke-dasharray: none; stroke-linecap: butt; stroke-dashoffset: 0; stroke-linejoin: miter; stroke-miterlimit: 4; fill: rgb(114,74,169); fill-rule: nonzero; opacity: 1;"  transform=" translate(-14.65, 7.84)" d="m 16.547 -12.766 c 0.61328 -0.94531 1.3477 -1.6719 2.2031 -2.1719 c 0.85156 -0.5 1.7891 -0.75 2.8125 -0.75 c 1.7578 0 3.0977 0.54688 4.0156 1.6406 c 0.92578 1.0859 1.3906 2.6562 1.3906 4.7188 v 9.3281 h -4.9219 v -7.9844 v -0.35938 c 0.007813 -0.13281 0.015625 -0.32031 0.015625 -0.5625 c 0 -1.082 -0.16406 -1.8633 -0.48438 -2.3438 c -0.3125 -0.48828 -0.82422 -0.73438 -1.5312 -0.73438 c -0.92969 0 -1.6484 0.38672 -2.1562 1.1562 c -0.51172 0.76172 -0.77344 1.8672 -0.78125 3.3125 v 7.5156 h -4.9219 v -7.9844 c 0 -1.6953 -0.14844 -2.7852 -0.4375 -3.2656 c -0.29297 -0.48828 -0.8125 -0.73438 -1.5625 -0.73438 c -0.9375 0 -1.6641 0.38672 -2.1719 1.1562 c -0.51172 0.76172 -0.76562 1.8594 -0.76562 3.2969 v 7.5312 h -4.9219 v -15.312 h 4.9219 v 2.2344 c 0.60156 -0.86328 1.2891 -1.5156 2.0625 -1.9531 c 0.78125 -0.4375 1.6406 -0.65625 2.5781 -0.65625 c 1.0625 0 2 0.25781 2.8125 0.76562 c 0.8125 0.51172 1.4258 1.2305 1.8438 2.1562 z" stroke-linecap="round" />
</g>
		<g transform="matrix(1 0 0 1 -212.06 384.39)"  >
<path style="stroke: none; stroke-width: 1; stroke-dasharray: none; stroke-linecap: butt; stroke-dashoffset: 0; stroke-linejoin: miter; stroke-miterlimit: 4; fill: rgb(114,74,169); fill-rule: nonzero; opacity: 1;"  transform=" translate(-6.56, 9.83)" d="m 7.7031 -19.656 v 4.3438 h 5.0469 v 3.5 h -5.0469 v 6.5 c 0 0.71094 0.14062 1.1875 0.42188 1.4375 s 0.83594 0.375 1.6719 0.375 h 2.5156 v 3.5 h -4.1875 c -1.9375 0 -3.3125 -0.39844 -4.125 -1.2031 c -0.80469 -0.8125 -1.2031 -2.1797 -1.2031 -4.1094 v -6.5 h -2.4219 v -3.5 h 2.4219 v -4.3438 z" stroke-linecap="round" />
</g>
		<g transform="matrix(1 0 0 1 -195.18 383.57)"  >
<path style="stroke: none; stroke-width: 1; stroke-dasharray: none; stroke-linecap: butt; stroke-dashoffset: 0; stroke-linejoin: miter; stroke-miterlimit: 4; fill: rgb(114,74,169); fill-rule: nonzero; opacity: 1;"  transform=" translate(-10.05, 10.64)" d="m 17.75 -9.3281 v 9.3281 h -4.9219 v -7.1094 c 0 -1.3438 -0.03125 -2.2656 -0.09375 -2.7656 s -0.16797 -0.86719 -0.3125 -1.1094 c -0.1875 -0.3125 -0.44922 -0.55469 -0.78125 -0.73438 c -0.32422 -0.17578 -0.69531 -0.26562 -1.1094 -0.26562 c -1.0234 0 -1.8242 0.39844 -2.4062 1.1875 c -0.58594 0.78125 -0.875 1.8711 -0.875 3.2656 v 7.5312 h -4.8906 v -21.281 h 4.8906 v 8.2031 c 0.73828 -0.88281 1.5195 -1.5391 2.3438 -1.9688 c 0.83203 -0.42578 1.75 -0.64062 2.75 -0.64062 c 1.7695 0 3.1133 0.54688 4.0312 1.6406 c 0.91406 1.0859 1.375 2.6562 1.375 4.7188 z" stroke-linecap="round" />
</g>
		<g transform="matrix(1 0 0 1 -175.88 386.57)"  >
<path style="stroke: none; stroke-width: 1; stroke-dasharray: none; stroke-linecap: butt; stroke-dashoffset: 0; stroke-linejoin: miter; stroke-miterlimit: 4; fill: rgb(114,74,169); fill-rule: nonzero; opacity: 1;"  transform=" translate(-9.42, 7.65)" d="m 17.641 -7.7031 v 1.4062 h -11.453 c 0.125 1.1484 0.53906 2.0078 1.25 2.5781 c 0.70703 0.57422 1.7031 0.85938 2.9844 0.85938 c 1.0312 0 2.082 -0.14844 3.1562 -0.45312 c 1.082 -0.3125 2.1914 -0.77344 3.3281 -1.3906 v 3.7656 c -1.1562 0.4375 -2.3125 0.76562 -3.4688 0.98438 c -1.1562 0.22656 -2.3125 0.34375 -3.4688 0.34375 c -2.7734 0 -4.9297 -0.70312 -6.4688 -2.1094 c -1.5312 -1.4062 -2.2969 -3.3789 -2.2969 -5.9219 c 0 -2.5 0.75391 -4.4609 2.2656 -5.8906 c 1.5078 -1.4375 3.582 -2.1562 6.2188 -2.1562 c 2.4062 0 4.332 0.73047 5.7812 2.1875 c 1.4453 1.4492 2.1719 3.3828 2.1719 5.7969 z m -5.0312 -1.625 c 0 -0.92578 -0.27344 -1.6719 -0.8125 -2.2344 c -0.54297 -0.57031 -1.25 -0.85938 -2.125 -0.85938 c -0.94922 0 -1.7188 0.26562 -2.3125 0.79688 s -0.96484 1.2969 -1.1094 2.2969 z" stroke-linecap="round" />
</g>
		<g transform="matrix(1 0 0 1 -144.85 384.01)"  >
<path style="stroke: none; stroke-width: 1; stroke-dasharray: none; stroke-linecap: butt; stroke-dashoffset: 0; stroke-linejoin: miter; stroke-miterlimit: 4; fill: rgb(114,74,169); fill-rule: nonzero; opacity: 1;"  transform=" translate(-11.72, 10.2)" d="m 2.5781 -20.406 h 5.875 l 7.4219 14 v -14 h 4.9844 v 20.406 h -5.875 l -7.4219 -14 v 14 h -4.9844 z" stroke-linecap="round" />
</g>
		<g transform="matrix(1 0 0 1 -123.52 386.57)"  >
<path style="stroke: none; stroke-width: 1; stroke-dasharray: none; stroke-linecap: butt; stroke-dashoffset: 0; stroke-linejoin: miter; stroke-miterlimit: 4; fill: rgb(114,74,169); fill-rule: nonzero; opacity: 1;"  transform=" translate(-9.62, 7.65)" d="m 9.6406 -12.188 c -1.0859 0 -1.9141 0.39062 -2.4844 1.1719 c -0.57422 0.78125 -0.85938 1.9062 -0.85938 3.375 s 0.28516 2.5938 0.85938 3.375 c 0.57031 0.77344 1.3984 1.1562 2.4844 1.1562 c 1.0625 0 1.875 -0.38281 2.4375 -1.1562 c 0.57031 -0.78125 0.85938 -1.9062 0.85938 -3.375 s -0.28906 -2.5938 -0.85938 -3.375 c -0.5625 -0.78125 -1.375 -1.1719 -2.4375 -1.1719 z m 0 -3.5 c 2.6328 0 4.6914 0.71484 6.1719 2.1406 c 1.4766 1.418 2.2188 3.3867 2.2188 5.9062 c 0 2.5117 -0.74219 4.4805 -2.2188 5.9062 c -1.4805 1.418 -3.5391 2.125 -6.1719 2.125 c -2.6484 0 -4.7148 -0.70703 -6.2031 -2.125 c -1.4922 -1.4258 -2.2344 -3.3945 -2.2344 -5.9062 c 0 -2.5195 0.74219 -4.4883 2.2344 -5.9062 c 1.4883 -1.4258 3.5547 -2.1406 6.2031 -2.1406 z" stroke-linecap="round" />
</g>
		<g transform="matrix(1 0 0 1 -104.01 386.75)"  >
<path style="stroke: none; stroke-width: 1; stroke-dasharray: none; stroke-linecap: butt; stroke-dashoffset: 0; stroke-linejoin: miter; stroke-miterlimit: 4; fill: rgb(114,74,169); fill-rule: nonzero; opacity: 1;"  transform=" translate(-9.88, 7.46)" d="m 2.1875 -5.9688 v -9.3438 h 4.9219 v 1.5312 c 0 0.83594 -0.007813 1.875 -0.015625 3.125 c -0.011719 1.25 -0.015625 2.0859 -0.015625 2.5 c 0 1.2422 0.03125 2.1328 0.09375 2.6719 c 0.070313 0.54297 0.17969 0.93359 0.32812 1.1719 c 0.20703 0.32422 0.47266 0.57422 0.79688 0.75 c 0.32031 0.16797 0.69141 0.25 1.1094 0.25 c 1.0195 0 1.8203 -0.39062 2.4062 -1.1719 c 0.58203 -0.78125 0.875 -1.8672 0.875 -3.2656 v -7.5625 h 4.8906 v 15.312 h -4.8906 v -2.2188 c -0.74219 0.89844 -1.5234 1.5586 -2.3438 1.9844 c -0.82422 0.41406 -1.7344 0.625 -2.7344 0.625 c -1.7617 0 -3.1055 -0.53906 -4.0312 -1.625 c -0.92969 -1.082 -1.3906 -2.6602 -1.3906 -4.7344 z" stroke-linecap="round" />
</g>
		<g transform="matrix(1 0 0 1 -83.91 386.37)"  >
<path style="stroke: none; stroke-width: 1; stroke-dasharray: none; stroke-linecap: butt; stroke-dashoffset: 0; stroke-linejoin: miter; stroke-miterlimit: 4; fill: rgb(114,74,169); fill-rule: nonzero; opacity: 1;"  transform=" translate(-10.05, 7.84)" d="m 17.75 -9.3281 v 9.3281 h -4.9219 v -7.1406 c 0 -1.3203 -0.03125 -2.2344 -0.09375 -2.7344 s -0.16797 -0.86719 -0.3125 -1.1094 c -0.1875 -0.3125 -0.44922 -0.55469 -0.78125 -0.73438 c -0.32422 -0.17578 -0.69531 -0.26562 -1.1094 -0.26562 c -1.0234 0 -1.8242 0.39844 -2.4062 1.1875 c -0.58594 0.78125 -0.875 1.8711 -0.875 3.2656 v 7.5312 h -4.8906 v -15.312 h 4.8906 v 2.2344 c 0.73828 -0.88281 1.5195 -1.5391 2.3438 -1.9688 c 0.83203 -0.42578 1.75 -0.64062 2.75 -0.64062 c 1.7695 0 3.1133 0.54688 4.0312 1.6406 c 0.91406 1.0859 1.375 2.6562 1.375 4.7188 z" stroke-linecap="round" />
</g>
		<g transform="matrix(1 0 0 1 -53.31 384.01)"  >
<path style="stroke: none; stroke-width: 1; stroke-dasharray: none; stroke-linecap: butt; stroke-dashoffset: 0; stroke-linejoin: miter; stroke-miterlimit: 4; fill: rgb(114,74,169); fill-rule: nonzero; opacity: 1;"  transform=" translate(-10.98, 10.2)" d="m 2.5781 -20.406 h 8.7344 c 2.5938 0 4.582 0.57812 5.9688 1.7344 c 1.3945 1.1484 2.0938 2.7891 2.0938 4.9219 c 0 2.1367 -0.69922 3.7812 -2.0938 4.9375 c -1.3867 1.1562 -3.375 1.7344 -5.9688 1.7344 h -3.4844 v 7.0781 h -5.25 z m 5.25 3.8125 v 5.7031 h 2.9219 c 1.0195 0 1.8047 -0.25 2.3594 -0.75 c 0.5625 -0.5 0.84375 -1.2031 0.84375 -2.1094 c 0 -0.91406 -0.28125 -1.6172 -0.84375 -2.1094 c -0.55469 -0.48828 -1.3398 -0.73438 -2.3594 -0.73438 z" stroke-linecap="round" />
</g>
		<g transform="matrix(1 0 0 1 -35.71 386.37)"  >
<path style="stroke: none; stroke-width: 1; stroke-dasharray: none; stroke-linecap: butt; stroke-dashoffset: 0; stroke-linejoin: miter; stroke-miterlimit: 4; fill: rgb(114,74,169); fill-rule: nonzero; opacity: 1;"  transform=" translate(-8.05, 7.84)" d="m 13.734 -11.141 c -0.4375 -0.19531 -0.87109 -0.34375 -1.2969 -0.4375 c -0.41797 -0.10156 -0.83984 -0.15625 -1.2656 -0.15625 c -1.2617 0 -2.2305 0.40625 -2.9062 1.2188 c -0.67969 0.80469 -1.0156 1.9531 -1.0156 3.4531 v 7.0625 h -4.8906 v -15.312 h 4.8906 v 2.5156 c 0.625 -1 1.3438 -1.7266 2.1562 -2.1875 c 0.82031 -0.46875 1.8008 -0.70312 2.9375 -0.70312 c 0.16406 0 0.34375 0.011719 0.53125 0.03125 c 0.19531 0.011719 0.47656 0.039062 0.84375 0.078125 z" stroke-linecap="round" />
</g>
		<g transform="matrix(1 0 0 1 -20.34 386.57)"  >
<path style="stroke: none; stroke-width: 1; stroke-dasharray: none; stroke-linecap: butt; stroke-dashoffset: 0; stroke-linejoin: miter; stroke-miterlimit: 4; fill: rgb(114,74,169); fill-rule: nonzero; opacity: 1;"  transform=" translate(-9.62, 7.65)" d="m 9.6406 -12.188 c -1.0859 0 -1.9141 0.39062 -2.4844 1.1719 c -0.57422 0.78125 -0.85938 1.9062 -0.85938 3.375 s 0.28516 2.5938 0.85938 3.375 c 0.57031 0.77344 1.3984 1.1562 2.4844 1.1562 c 1.0625 0 1.875 -0.38281 2.4375 -1.1562 c 0.57031 -0.78125 0.85938 -1.9062 0.85938 -3.375 s -0.28906 -2.5938 -0.85938 -3.375 c -0.5625 -0.78125 -1.375 -1.1719 -2.4375 -1.1719 z m 0 -3.5 c 2.6328 0 4.6914 0.71484 6.1719 2.1406 c 1.4766 1.418 2.2188 3.3867 2.2188 5.9062 c 0 2.5117 -0.74219 4.4805 -2.2188 5.9062 c -1.4805 1.418 -3.5391 2.125 -6.1719 2.125 c -2.6484 0 -4.7148 -0.70703 -6.2031 -2.125 c -1.4922 -1.4258 -2.2344 -3.3945 -2.2344 -5.9062 c 0 -2.5195 0.74219 -4.4883 2.2344 -5.9062 c 1.4883 -1.4258 3.5547 -2.1406 6.2031 -2.1406 z" stroke-linecap="round" />
</g>
		<g transform="matrix(1 0 0 1 -7.57 386.59)"  >
<path style="stroke: none; stroke-width: 1; stroke-dasharray: none; stroke-linecap: butt; stroke-dashoffset: 0; stroke-linejoin: miter; stroke-miterlimit: 4; fill: rgb(114,74,169); fill-rule: nonzero; opacity: 1;"  transform=" translate(-3.16, 7.62)" d="m 2.3594 -15.312 h 4.8906 v 15.031 c 0 2.0508 -0.49609 3.6172 -1.4844 4.7031 c -0.98047 1.082 -2.4062 1.625 -4.2812 1.625 h -2.4219 v -3.2188 h 0.85938 c 0.92578 0 1.5625 -0.21094 1.9062 -0.625 c 0.35156 -0.41797 0.53125 -1.2461 0.53125 -2.4844 z m 0 -5.9688 h 4.8906 v 4 h -4.8906 z" stroke-linecap="round" />
</g>
		<g transform="matrix(1 0 0 1 8.3 386.57)"  >
<path style="stroke: none; stroke-width: 1; stroke-dasharray: none; stroke-linecap: butt; stroke-dashoffset: 0; stroke-linejoin: miter; stroke-miterlimit: 4; fill: rgb(114,74,169); fill-rule: nonzero; opacity: 1;"  transform=" translate(-9.42, 7.65)" d="m 17.641 -7.7031 v 1.4062 h -11.453 c 0.125 1.1484 0.53906 2.0078 1.25 2.5781 c 0.70703 0.57422 1.7031 0.85938 2.9844 0.85938 c 1.0312 0 2.082 -0.14844 3.1562 -0.45312 c 1.082 -0.3125 2.1914 -0.77344 3.3281 -1.3906 v 3.7656 c -1.1562 0.4375 -2.3125 0.76562 -3.4688 0.98438 c -1.1562 0.22656 -2.3125 0.34375 -3.4688 0.34375 c -2.7734 0 -4.9297 -0.70312 -6.4688 -2.1094 c -1.5312 -1.4062 -2.2969 -3.3789 -2.2969 -5.9219 c 0 -2.5 0.75391 -4.4609 2.2656 -5.8906 c 1.5078 -1.4375 3.582 -2.1562 6.2188 -2.1562 c 2.4062 0 4.332 0.73047 5.7812 2.1875 c 1.4453 1.4492 2.1719 3.3828 2.1719 5.7969 z m -5.0312 -1.625 c 0 -0.92578 -0.27344 -1.6719 -0.8125 -2.2344 c -0.54297 -0.57031 -1.25 -0.85938 -2.125 -0.85938 c -0.94922 0 -1.7188 0.26562 -2.3125 0.79688 s -0.96484 1.2969 -1.1094 2.2969 z" stroke-linecap="round" />
</g>
		<g transform="matrix(1 0 0 1 25.83 386.57)"  >
<path style="stroke: none; stroke-width: 1; stroke-dasharray: none; stroke-linecap: butt; stroke-dashoffset: 0; stroke-linejoin: miter; stroke-miterlimit: 4; fill: rgb(114,74,169); fill-rule: nonzero; opacity: 1;"  transform=" translate(-7.96, 7.65)" d="m 14.719 -14.828 v 3.9844 c -0.65625 -0.45703 -1.3242 -0.79688 -2 -1.0156 c -0.66797 -0.21875 -1.3594 -0.32812 -2.0781 -0.32812 c -1.3672 0 -2.4336 0.40234 -3.2031 1.2031 c -0.76172 0.79297 -1.1406 1.9062 -1.1406 3.3438 c 0 1.4297 0.37891 2.543 1.1406 3.3438 c 0.76953 0.79297 1.8359 1.1875 3.2031 1.1875 c 0.75781 0 1.4844 -0.10938 2.1719 -0.32812 c 0.6875 -0.22656 1.3203 -0.56641 1.9062 -1.0156 v 4 c -0.76172 0.28125 -1.5391 0.48828 -2.3281 0.625 c -0.78125 0.14453 -1.5742 0.21875 -2.375 0.21875 c -2.7617 0 -4.9219 -0.70703 -6.4844 -2.125 c -1.5547 -1.4141 -2.3281 -3.3828 -2.3281 -5.9062 c 0 -2.5312 0.77344 -4.5039 2.3281 -5.9219 c 1.5625 -1.4141 3.7227 -2.125 6.4844 -2.125 c 0.80078 0 1.5938 0.074219 2.375 0.21875 c 0.78125 0.13672 1.5547 0.35156 2.3281 0.64062 z" stroke-linecap="round" />
</g>
		<g transform="matrix(1 0 0 1 41.03 384.39)"  >
<path style="stroke: none; stroke-width: 1; stroke-dasharray: none; stroke-linecap: butt; stroke-dashoffset: 0; stroke-linejoin: miter; stroke-miterlimit: 4; fill: rgb(114,74,169); fill-rule: nonzero; opacity: 1;"  transform=" translate(-6.56, 9.83)" d="m 7.7031 -19.656 v 4.3438 h 5.0469 v 3.5 h -5.0469 v 6.5 c 0 0.71094 0.14062 1.1875 0.42188 1.4375 s 0.83594 0.375 1.6719 0.375 h 2.5156 v 3.5 h -4.1875 c -1.9375 0 -3.3125 -0.39844 -4.125 -1.2031 c -0.80469 -0.8125 -1.2031 -2.1797 -1.2031 -4.1094 v -6.5 h -2.4219 v -3.5 h 2.4219 v -4.3438 z" stroke-linecap="round" />
</g>
</g>
</g>
</svg>