<?xml version="1.0" encoding="UTF-8" standalone="no" ?>
<!DOCTYPE svg PUBLIC "-//W3C//DTD SVG 1.1//EN" "http://www.w3.org/Graphics/SVG/1.1/DTD/svg11.dtd">
<svg xmlns="http://www.w3.org/2000/svg" xmlns:xlink="http://www.w3.org/1999/xlink" version="1.1" width="487" height="487" viewBox="0 0 487 487" xml:space="preserve">
<desc>Created with Fabric.js 3.6.6</desc>
<defs>
</defs>
<g transform="matrix(1 0 0 1 246 245)"  >
<g style=""   >
		<g transform="matrix(1 0 0 1 -300 -300)"  >
<rect style="stroke: none; stroke-width: 1; stroke-dasharray: none; stroke-linecap: butt; stroke-dashoffset: 0; stroke-linejoin: miter; stroke-miterlimit: 4; fill: rgb(201,145,145); fill-opacity: 0; fill-rule: nonzero; opacity: 1;"  x="-50" y="-50" rx="0" ry="0" width="100" height="100" />
</g>
		<g transform="matrix(1 0 0 1 -250 -341)" id="backgroundrect"  >
<rect style="stroke: none; stroke-width: 1; stroke-dasharray: none; stroke-linecap: butt; stroke-dashoffset: 0; stroke-linejoin: miter; stroke-miterlimit: 4; fill: none; fill-rule: nonzero; opacity: 1;"  x="-50" y="-50" rx="0" ry="0" width="100" height="100" />
</g>
		<g transform="matrix(-0.69 0 0 0.69 207.58 -208.82)" id="svg_5"  >
<rect style="stroke: none; stroke-width: 1; stroke-dasharray: none; stroke-linecap: butt; stroke-dashoffset: 0; stroke-linejoin: miter; stroke-miterlimit: 4; fill: none; fill-rule: nonzero; opacity: 1;" vector-effect="non-scaling-stroke"  x="-50" y="-50" rx="0" ry="0" width="100" height="100" />
</g>
		<g transform="matrix(-0.69 0 0 0.69 207.58 -208.82)" id="svg_7"  >
<rect style="stroke: none; stroke-width: 1; stroke-dasharray: none; stroke-linecap: butt; stroke-dashoffset: 0; stroke-linejoin: miter; stroke-miterlimit: 4; fill: rgb(201,145,145); fill-opacity: 0; fill-rule: nonzero; opacity: 1;" vector-effect="non-scaling-stroke"  x="-50" y="-50" rx="0" ry="0" width="100" height="100" />
</g>
		<g transform="matrix(1 0 0 1 -14.03 89.39)" id="svg_9"  >
<path style="stroke: none; stroke-width: 1; stroke-dasharray: none; stroke-linecap: butt; stroke-dashoffset: 0; stroke-linejoin: miter; stroke-miterlimit: 4; fill: rgb(150,148,252); fill-rule: nonzero; opacity: 1;" vector-effect="non-scaling-stroke"  transform=" translate(-285.97, -480.39)" d="m 234.15360223854066 437.02415746510314 c 2.4412655399999994 -1.0647155400000001 6.728576399999999 -5.2373139 11.4501429 -13.761829200000001 c 2.74952097 -4.9576907100000005 8.99777319 -6.76445847 13.9738179 -4.0149375 c 4.96494054 2.74952097 6.76445847 9.00493125 4.0149375 13.9738179 c -6.49557237 11.7254529 -13.632433500000001 19.354293 -21.2364957 22.6589307 c -18.0383112 7.84706916 -24.3401571 25.964486100000002 -22.566243 39.4721124 c 0.9033655259999996 6.86485485 5.37001332 23.196702900000002 27.2731263 26.480233499999997 c 6.768037499999999 1.01809638 14.0701764 0.07169531250000008 20.5518915 -2.64554556 c 2.26561776 -0.9571610999999999 4.549038899999999 -2.1795375 6.96883026 -3.4736780400000002 c 5.90411472 -3.1724889 12.5972679 -6.76445847 21.167668199999998 -7.42768026 c 0.5305407240000002 -0.03943265130000003 1.05746571 -0.03943265130000003 1.5880798500000006 0 c 8.56755543 0.6631850820000005 15.264104099999999 4.25509959 21.167668199999998 7.42768026 c 2.41969959 1.2941405400000001 4.703212499999999 2.523675 6.96883026 3.4808361 c 6.48125625 2.71721793 13.776512400000001 3.66006291 20.5518915 2.64554556 c 4.40927319 -0.6595968750000003 8.41705263 -1.9286383200000001 11.9016513 -3.76761735 c 5.0222967899999995 -2.65270362 11.2381542 -0.7312967760000003 13.8875541 4.29098166 c 2.65270362 5.0222967899999995 0.7312967760000003 11.2381542 -4.29098166 13.8875541 c -5.53483224 2.9251687499999997 -11.7474777 4.91832138 -18.4540293 5.922009869999999 c -2.842759290000001 0.4265836680000002 -5.71057179 0.6380859870000002 -8.57113446 0.6380859870000002 c -7.818345150000001 0 -15.633019500000001 -1.57734276 -22.9856319 -4.66733043 c -3.1653308399999998 -1.32993084 -5.997353039999999 -2.84633832 -8.732466119999998 -4.31603487 c -4.4128522199999995 -2.3695014 -8.27003709 -4.44148446 -12.2347764 -4.9576907100000005 c -3.9683183399999997 0.5197944570000004 -7.818345150000001 2.5846102799999997 -12.2347764 4.9576907100000005 c -2.73520485 1.4697883200000001 -5.5599772199999995 2.98610403 -8.72530806 4.31603487 c -10.051568099999999 4.22288832 -20.956597199999997 5.61017541 -31.564291500000003 4.02925362 c -24.4126554 -3.66006291 -41.5048179 -20.572998600000002 -44.6020554 -44.135863799999996 c -3.369702630000001 -25.5625335 10.9187946 -50.646027600000004 34.7331096 -61.012366799999995 z" stroke-linecap="round" />
</g>
		<g transform="matrix(1 0 0 1 24.78 55.82)" id="svg_11"  >
<path style="stroke: none; stroke-width: 1; stroke-dasharray: none; stroke-linecap: butt; stroke-dashoffset: 0; stroke-linejoin: miter; stroke-miterlimit: 4; fill: rgb(150,148,252); fill-rule: nonzero; opacity: 1;" vector-effect="non-scaling-stroke"  transform=" translate(-324.78, -446.82)" d="m 370.7172023359527 504.58621765467836 c 3.8069866799999996 -8.27003709 3.9683183399999997 -18.314538900000002 0.4373391120000003 -27.5667903 c -3.65290485 -9.575281799999999 -10.8793335 -17.1169404 -20.3399028 -21.2364957 c -14.496906899999999 -6.30560847 -24.0501639 -27.2263236 -27.4841973 -35.9233665 c -6.66406209 -16.8875154 -14.532697200000001 -24.2942721 -26.308623599999997 -24.759546 c -0.15773427600000006 -0.0035845362000000037 -0.3118711680000003 -0.014339062500000012 -0.4660172370000001 -0.032262661200000035 c -0.07169623020000007 0 -0.14339062500000002 0 -0.21509052600000006 -0.0035854539000000026 l -0.483939918 -0.025092671100000026 c -9.12680181 0.5305407240000002 -15.715612499999999 5.15848347 -21.318171 14.9695224 c -2.81761431 4.921900409999999 -9.087340710000001 6.6497459700000014 -14.0233737 3.828552630000001 c -4.92905847 -2.81761431 -6.6461669400000005 -9.09459054 -3.828552630000001 -14.0233737 c 9.184341599999998 -16.0845279 22.197327599999998 -24.6053724 39.1243041 -25.347791700000002 c 0.32262661200000026 0 0.6309187500000003 0.010754526300000015 0.9033563489999996 0.032262661200000035 c 0.4265836680000002 -0.014339062500000012 1.0395705600000003 -0.0035845362000000037 1.76730666 0.0860343750000001 c 29.6894304 1.5665139 40.4256027 28.7497056 43.970677800000004 37.722058499999996 c 4.810766940000001 12.184302899999999 11.7722556 22.5405474 16.561731899999998 24.627397199999997 c 14.5758291 6.34149054 25.7066124 17.977743 31.348632 32.7609723 c 5.4847258199999995 14.3858652 5.13343026 30.2336265 -0.9714772199999998 43.4870499 c -1.73142459 3.7604592899999996 -5.45600181 5.98294515 -9.342186 5.98294515 c -1.4374852800000002 0 -2.9001155400000003 -0.3047039310000002 -4.29098166 -0.9463322400000002 c -5.15848347 -2.37308043 -7.413272369999999 -8.47082985 -5.04019194 -13.632433500000001 z" stroke-linecap="round" />
</g>
		<g transform="matrix(1 0 0 1 136.56 -13.14)" id="svg_13"  >
<path style="stroke: none; stroke-width: 1; stroke-dasharray: none; stroke-linecap: butt; stroke-dashoffset: 0; stroke-linejoin: miter; stroke-miterlimit: 4; fill: rgb(150,148,252); fill-rule: nonzero; opacity: 1;" vector-effect="non-scaling-stroke"  transform=" translate(-436.56, -377.86)" d="m 392.3515313359527 369.7000448789215 c 5.595859289999999 -28.0293111 26.082869400000003 -48.3692139 48.702338999999995 -48.3692139 c 2.17237944 0 4.359075 0.19357963800000014 6.4848352799999995 0.5807297370000005 c 10.015777799999999 1.8030969600000002 18.959682 7.83633207 25.1936181 16.9884624 c 8.57838429 12.5972679 11.5070403 29.771105700000003 8.04419112 47.12205959999999 c -5.595859289999999 28.0293111 -26.082869400000003 48.3692139 -48.702338999999995 48.3692139 c -2.17237944 0 -4.359075 -0.19357963800000014 -6.4848352799999995 -0.5807297370000005 c -10.015777799999999 -1.8030969600000002 -18.9633528 -7.84349013 -25.1972889 -16.9985571 c -8.57480526 -12.5862555 -11.5033695 -29.761011 -8.04061209 -47.1110472 z m 25.035773699999996 35.5535334 c 2.19385362 3.22268709 6.0295643100000005 7.28066472 11.8511778 8.3345514 c 13.088237399999999 2.3623433400000002 27.5456832 -12.3641721 31.384422299999997 -31.585398599999998 c 2.3551852799999997 -11.8007043 0.534128931 -23.5839723 -4.8717022199999995 -31.527583499999995 c -2.19385362 -3.22268709 -6.0295643100000005 -7.28066472 -11.843836200000002 -8.330972369999998 c -0.9284370900000001 -0.16848054300000007 -1.88559819 -0.25093588800000005 -2.842759290000001 -0.25093588800000005 c -12.4430943 0 -24.9752055 13.983912599999998 -28.5423054 31.835930700000002 c -2.3695014 11.7942804 -0.5448843750000001 23.5766307 4.8645441599999995 31.524830399999995 z" stroke-linecap="round" />
</g>
		<g transform="matrix(1 0 0 1 58.22 -111.34)" id="svg_15"  >
<path style="stroke: none; stroke-width: 1; stroke-dasharray: none; stroke-linecap: butt; stroke-dashoffset: 0; stroke-linejoin: miter; stroke-miterlimit: 4; fill: rgb(150,148,252); fill-rule: nonzero; opacity: 1;" vector-effect="non-scaling-stroke"  transform=" translate(-358.22, -279.66)" d="m 386.6173502738189 320.84396827351384 c -8.30591916 9.8579334 -19.2148026 15.346697099999998 -30.2914416 15.346697099999998 c -0.9141117929999999 0 -1.82466291 -0.03584719740000003 -2.7459419400000002 -0.11471250000000006 c -11.998009799999998 -0.98579334 -22.970948699999997 -8.43494778 -30.0941361 -20.4298374 c -6.56366571 -11.0481903 -9.5284791 -25.089917999999997 -8.3345514 -39.5290098 c 2.6060844600000004 -31.6358721 23.6344458 -54.9261804 47.7167292 -52.871450100000004 c 10.1304903 0.8316656250000002 19.5552693 6.2339361 26.5380486 15.202618199999998 c 3.4879941600000004 4.48094556 2.68142763 10.937148599999999 -1.79951793 14.425326299999998 c -4.48094556 3.4879941600000004 -10.9408194 2.6778486000000012 -14.425326299999998 -1.79951793 c -2.4089625 -3.0972375 -6.448953210000001 -6.8863290300000015 -11.998009799999998 -7.34517903 c -12.1237347 -0.9500030399999999 -23.9391222 14.589594599999998 -25.541426400000002 34.07328329999999 c -0.8280774180000002 10.0735929 1.1830070699999997 20.042568 5.52409515 27.344706900000002 c 2.1652213799999998 3.6421677599999995 6.8720129100000005 9.846921 14.105966700000002 10.4388375 c 7.2268875 0.6129960690000001 12.8946027 -4.753410690000001 15.6220071 -7.9904139 c 5.47389696 -6.49557237 9.09091974 -16.0028526 9.9194193 -26.0755278 c 0.3190475820000002 -3.8607639000000002 0.2330132070000001 -7.7000536199999985 -0.25810312500000004 -11.392327799999999 c -0.7384640130000004 -5.62807056 3.22268709 -10.7939874 8.85075765 -11.5318182 c 5.60659638 -0.7241203620000002 10.7939874 3.22268709 11.5318182 8.85075765 c 0.6739405260000005 5.14058832 0.7958202630000003 10.442508299999998 0.3584719740000002 15.755073599999998 c -1.1794280400000001 14.4464334 -6.395267759999999 27.814569300000002 -14.679529200000001 37.644054000000004 z" stroke-linecap="round" />
</g>
		<g transform="matrix(1 0 0 1 -141.87 -13.15)" id="svg_17"  >
<path style="stroke: none; stroke-width: 1; stroke-dasharray: none; stroke-linecap: butt; stroke-dashoffset: 0; stroke-linejoin: miter; stroke-miterlimit: 4; fill: rgb(150,148,252); fill-rule: nonzero; opacity: 1;" vector-effect="non-scaling-stroke"  transform=" translate(-158.13, -377.85)" d="m 147.15266767482 321.9085058789215 c 24.7026486 -4.47020847 48.946447199999994 16.5433779 55.195066499999996 47.7883098 c 3.46284918 17.3426946 0.534128931 34.5247917 -8.037033059999999 47.114717999999996 c -6.230357070000001 9.151946789999998 -15.181511099999998 15.1925235 -25.1936181 16.995804 c -2.1652213799999998 0.39073830600000015 -4.3376008200000005 0.5807297370000005 -6.51713832 0.5807297370000005 c -9.5321499 0 -19.0707237 -3.69943224 -27.4126167 -10.7361723 c -4.3376008200000005 -3.66006291 -4.88601834 -10.1451735 -1.2223764 -14.482223699999999 c 3.6636419400000007 -4.3376008200000005 10.1451735 -4.88601834 14.482223699999999 -1.2223764 c 5.4775677599999995 4.620803039999999 11.535488999999998 6.62827179 17.0205819 5.631649589999999 c 5.81803446 -1.0467286199999999 9.6505332 -5.1082852800000005 11.843836200000002 -8.3345514 c 5.40580362 -7.9437947399999995 7.230466529999999 -19.73055 4.8717022199999995 -31.524830399999995 c -3.8894879099999997 -19.4864418 -18.2787486 -33.954899999999995 -31.388093100000003 -31.585398599999998 c -5.810876399999999 1.0467286199999999 -9.6505332 5.1082852800000005 -11.843836200000002 8.330972369999998 c -5.40580362 7.9437947399999995 -7.230466529999999 19.73055 -4.8717022199999995 31.527583499999995 c 0.6058288320000006 3.0327231899999996 1.4733673500000002 6.00093207 2.5738731899999996 8.82212541 c 2.0648249999999995 5.28751209 -0.5412961679999999 11.249166599999999 -5.828863320000001 13.313991599999998 c -5.283933060000001 2.0505088799999998 -11.2454958 -0.5448843750000001 -13.313991599999998 -5.828863320000001 c -1.5414606900000003 -3.94326513 -2.74952097 -8.072915130000002 -3.5919695700000003 -12.2889207 c -3.46284918 -17.350036199999998 -0.534128931 -34.5247917 8.04419112 -47.12205959999999 c 6.230357070000001 -9.14836776 15.177840300000002 -15.1741695 25.1899473 -16.9811208 z" stroke-linecap="round" />
</g>
		<g transform="matrix(1 0 0 1 -63.51 -111.33)" id="svg_19"  >
<path style="stroke: none; stroke-width: 1; stroke-dasharray: none; stroke-linecap: butt; stroke-dashoffset: 0; stroke-linejoin: miter; stroke-miterlimit: 4; fill: rgb(150,148,252); fill-rule: nonzero; opacity: 1;" vector-effect="non-scaling-stroke"  transform=" translate(-236.49, -279.67)" d="m 241.13060596058665 336.0846853255158 c -0.93559515 0.07886530260000003 -1.87128207 0.11471250000000006 -2.7961401299999995 0.11471250000000006 c -23.121451500000003 0 -42.428941800000004 -22.7809848 -44.9168265 -52.9824918 c -1.1865861000000004 -14.4390918 1.76730666 -28.4808195 8.3345514 -39.5290098 c 7.12649112 -11.994339 18.0961263 -19.440556800000003 30.0941361 -20.4298374 c 24.3117084 -2.01104778 45.132486 21.4549083 47.7167292 52.871450100000004 c 1.1865861000000004 14.4390918 -1.7744647199999997 28.4808195 -8.3345514 39.5290098 c -7.12649112 11.994339 -18.0997971 19.440556800000003 -30.0978069 20.4261666 z m 17.9456235 -58.2702792 c -1.5486187500000002 -18.812849999999997 -12.507333299999999 -34.120086 -24.4300917 -34.120086 c -0.36922741800000003 0 -0.7384640130000004 0.014339062500000012 -1.1112429300000002 0.04660172370000006 c -7.23762459 0.5950733880000002 -11.9447832 6.800340539999999 -14.1133083 10.442508299999998 c -4.3376008200000005 7.302138899999999 -6.35222763 17.271114 -5.520516119999999 27.344706900000002 c 1.5988169399999999 19.3937541 13.263518099999999 35.0735763 25.541426400000002 34.0659417 c 7.230466529999999 -0.5950733880000002 11.9447832 -6.79309071 14.105966700000002 -10.4388375 c 4.3447588800000005 -7.29855987 6.35222763 -17.271114 5.52767418 -27.3410361 z" stroke-linecap="round" />
</g>
		<g transform="matrix(1 0 0 1 -2.64 3.24)" id="svg_21"  >
<path style="stroke: none; stroke-width: 1; stroke-dasharray: none; stroke-linecap: butt; stroke-dashoffset: 0; stroke-linejoin: miter; stroke-miterlimit: 4; fill: rgb(150,148,252); fill-rule: nonzero; opacity: 1;" vector-effect="non-scaling-stroke"  transform=" translate(-297.36, -394.24)" d="m 138.96381079566953 274.94717711940007 c 1.9286383200000001 -0.3441375000000002 3.87517179 -0.6273305430000001 5.83244235 -0.8388328620000002 c 1.13638791 -53.6175402 36.102318000000004 -97.028421 83.0729571 -100.901115 c 25.778193 -2.0827201499999997 50.7497277 8.1445875 69.48732629999999 27.8540304 c 17.124282 -18.013533300000002 39.4537584 -28.1256696 62.84134290000001 -28.1256696 c 2.20101168 0 4.40927319 0.09320161200000006 6.67122015 0.2724467760000003 c 46.9421904 3.87159276 81.90839580000001 47.2863279 83.04817919999999 100.901115 c 1.9680076499999999 0.2115023190000001 3.9145411199999995 0.4946953620000002 5.84317944 0.842421069 c 22.279002900000002 4.00777944 41.8700625 16.9811208 55.169370900000004 36.5070237 c 15.7514028 23.139805499999998 21.3291834 53.6423181 15.324672300000001 83.70433469999999 c -7.15521513 35.8407735 -29.6206029 65.4824835 -59.3889555 79.0552665 c -3.63849696 78.54594300000001 -68.6696556 141.32580000000002 -148.098426 141.32580000000002 h -44.2432347 c -79.6499361 0 -144.80388299999998 -63.1350069 -148.11678 -141.98654399999998 c -29.0222625 -13.891224900000001 -50.9396916 -43.2934152 -57.948166500000006 -78.3880986 c -6.00093207 -30.0656874 -0.4230046380000002 -60.5682 15.324672300000001 -83.70433469999999 c 13.291966799999999 -19.533244500000002 32.8866972 -32.506769399999996 55.1767125 -36.5180361 z m -50.344104300000005 116.199174 c 6.15143487 30.807188999999997 25.9286958 56.1090957 51.6132834 66.0275973 c 4.13322903 1.5916588799999998 6.603126809999999 5.57071431 6.538612499999999 9.7542333 c 0.0035845362000000037 0.11830070700000009 0.03584811510000003 0.2258367930000002 0.03584811510000003 0.34772570700000033 c 0 70.4261334 57.292011 127.716309 127.716309 127.716309 h 44.2432347 c 70.4261334 0 127.716309 -57.292011 127.716309 -127.716309 c 0 -0.08244892110000004 0.021509052600000026 -0.15773427600000006 0.02509358880000002 -0.24018044400000016 c 0.010754526300000015 -0.39073830600000015 0.060940786200000034 -0.7671421380000003 0.11830070700000009 -1.147125 c 0.03943265130000003 -0.2975366940000002 0.06811077630000008 -0.6022406250000003 0.13263518100000007 -0.8890218750000005 c 0.07886438490000006 -0.3333820560000003 0.19357963800000014 -0.6488414310000005 0.3047039310000002 -0.9714772199999998 c 0.10754526300000007 -0.3118711680000003 0.19357963800000014 -0.6309187500000003 0.3298030260000002 -0.9284370900000001 c 0.13263518100000007 -0.2975366940000002 0.3047039310000002 -0.577150707 0.4660172370000001 -0.8567555430000002 c 0.16490151300000008 -0.28678125000000004 0.30829213800000016 -0.5807297370000005 0.49828356900000026 -0.8495883059999997 c 0.19357963800000014 -0.2831930430000001 0.43017187500000026 -0.5305407240000002 0.6524296380000005 -0.792232056 c 0.20433508200000008 -0.2365922370000002 0.39432651300000027 -0.483939918 0.6201633060000001 -0.6990304440000003 c 0.24018044400000016 -0.2365922370000002 0.5126180430000001 -0.43017187500000026 0.7814766120000002 -0.6488414310000005 c 0.26169133199999994 -0.20433508200000008 0.5090390130000003 -0.41582822400000036 0.7850648189999999 -0.6022406250000003 c 0.25093588800000005 -0.16490151300000008 0.5305407240000002 -0.2939484870000003 0.8029875000000002 -0.4373391120000003 c 0.3405492930000003 -0.17923598700000007 0.6739405260000005 -0.3548929440000001 1.0324125 -0.49828356900000026 c 0.07886438490000006 -0.032262661200000035 0.14339062500000002 -0.07886438490000006 0.22225776300000014 -0.10754526300000007 c 26.3122944 -9.5569278 46.5585918 -35.0267736 52.835659799999995 -66.4791057 c 4.9326375 -24.6842946 0.5018717760000003 -49.5053265 -12.152183400000002 -68.1034347 c -10.1699514 -14.9337321 -25.018337399999997 -24.821031899999998 -41.837943 -27.850359599999997 c -3.57756168 -0.6488414310000005 -7.273506659999999 -0.9750562499999994 -10.9839513 -0.9750562499999994 l -1.3012986000000004 0.014339062500000012 c -2.93590584 0.103957056 -5.699742929999999 -1.0216754099999998 -7.7251986000000015 -3.09365847 c -2.0253639 -2.07198306 -3.0793423500000006 -4.90400526 -2.90369457 -7.7968709700000005 c 2.82477237 -47.067915299999996 -25.2835527 -86.4390807 -63.991221 -89.62992360000001 c -22.848894599999998 -1.82466291 -44.555252700000004 9.101748599999999 -59.5715778 29.441651399999998 c -1.9357963799999998 2.62765041 -5.011467929999999 4.17984819 -8.27003709 4.17984819 s -6.3306616799999995 -1.5486187500000002 -8.27003709 -4.172690129999999 c -15.016325099999998 -20.3399028 -37.120047299999996 -31.220154000000004 -59.546799899999996 -29.448993 c -38.737034699999995 3.19047582 -66.8590335 42.562008299999995 -64.0242582 89.62992360000001 c 0.17565695700000003 2.8928657099999997 -0.8782664310000001 5.7213088800000005 -2.90369457 7.7968709700000005 c -2.0182058400000003 2.07198306 -4.739094570000001 3.18689679 -7.7251986000000015 3.09365847 l -1.3012986000000004 -0.014339062500000012 c -3.6886951499999996 0 -7.39179819 0.3298030260000002 -10.9876221 0.9750562499999994 c -16.808593199999997 3.02556513 -31.66065 12.9267222 -41.826930600000004 27.8540304 c -12.654165299999999 18.611873699999997 -17.0848209 43.432905600000005 -12.152183400000002 68.1181179 z" stroke-linecap="round" />
</g>
		<g transform="matrix(1 0 0 1 245.7 328.75)" id="svg_23"  >
<path style="stroke: none; stroke-width: 1; stroke-dasharray: none; stroke-linecap: butt; stroke-dashoffset: 0; stroke-linejoin: miter; stroke-miterlimit: 4; fill: rgb(150,148,252); fill-rule: nonzero; opacity: 1;" vector-effect="non-scaling-stroke"  transform=" translate(-545.7, -719.74)" d="m 537.7255792473571 728.0677063872337 c 0.8890218750000005 0.4588500000000002 1.8175048500000002 0.8029875000000002 2.78173224 1.0324125 c 0.9571610999999999 0.2365922370000002 1.9608495899999998 0.3584719740000002 3.0111572399999997 0.3584719740000002 c 3.11871168 0 5.58860946 -0.867510987 7.413272369999999 -2.60975526 c 1.8282419399999998 -1.74931974 2.7387838799999997 -4.11533388 2.7387838799999997 -7.0978588799999995 c 0 -2.98968306 -0.910532763 -5.355605430000001 -2.7387838799999997 -7.0978588799999995 c -1.82466291 -1.74931974 -4.294560690000001 -2.6240713799999997 -7.413272369999999 -2.6240713799999997 c -1.05030765 0 -2.05408791 0.12187973700000003 -3.0111572399999997 0.3584719740000002 c -0.96431916 0.22942500000000016 -1.8927562500000001 0.5735624999999999 -2.78173224 1.0324125 v 3.87159276 c 0.8997773190000001 -0.6022406250000003 1.7852018100000007 -1.0467286199999999 2.65270362 -1.33350987 c 0.8710991940000002 -0.28678125000000004 1.78878084 -0.43017187500000026 2.7531 -0.43017187500000026 c 1.7206875000000001 0 3.0757633199999996 0.5556398190000003 4.05797763 1.6633312500000001 c 0.98579334 1.10050584 1.47694638 2.62049235 1.47694638 4.5598677599999995 c 0 1.9322173500000002 -0.4911163320000001 3.45211209 -1.47694638 4.5598677599999995 c -0.9822143099999995 1.10050584 -2.33729013 1.64901513 -4.05797763 1.64901513 c -0.96431916 0 -1.8820191600000002 -0.13622338800000014 -2.7531 -0.41582822400000036 c -0.867510987 -0.28678125000000004 -1.7529905399999999 -0.7348758060000002 -2.65270362 -1.3479177600000005 z" stroke-linecap="round" />
</g>
		<g transform="matrix(1 0 0 1 228.66 330.9)" id="svg_25"  >
<path style="stroke: none; stroke-width: 1; stroke-dasharray: none; stroke-linecap: butt; stroke-dashoffset: 0; stroke-linejoin: miter; stroke-miterlimit: 4; fill: rgb(150,148,252); fill-rule: nonzero; opacity: 1;" vector-effect="non-scaling-stroke"  transform=" translate(-528.66, -721.9)" d="m 523.4375144317847 718.8699616097228 c 0.40149375000000015 -0.17923598700000007 0.7993992930000003 -0.31545937500000026 1.19016513 -0.40149375000000015 c 0.38357106900000026 -0.09320161200000006 0.7707211680000001 -0.14339062500000002 1.16144112 -0.14339062500000002 c 1.1578620900000003 0 2.04692985 0.3728156250000001 2.66701974 1.1184927600000003 c 0.6237515130000006 0.7384640130000004 0.9320161199999998 1.7923598699999999 0.9320161199999998 3.1689098700000007 v 6.48125625 h 4.48810362 v -14.051822399999999 h -4.48810362 v 2.30856612 c -0.5735624999999999 -0.9177000000000002 -1.23320526 -1.5845008200000001 -1.97874474 -2.00746875 c -0.7527984870000004 -0.43017187500000026 -1.6525941600000005 -0.6452532240000003 -2.69574375 -0.6452532240000003 c -0.15055786200000004 0 -0.31545937500000026 0.010754526300000015 -0.487528125 0.028678125000000023 c -0.17923598700000007 0.010754526300000015 -0.4373391120000003 0.03584719740000003 -0.774309375 0.07169531250000008 z" stroke-linecap="round" />
</g>
		<g transform="matrix(1 0 0 1 214.68 331.08)" id="svg_27"  >
<path style="stroke: none; stroke-width: 1; stroke-dasharray: none; stroke-linecap: butt; stroke-dashoffset: 0; stroke-linejoin: miter; stroke-miterlimit: 4; fill: rgb(150,148,252); fill-rule: nonzero; opacity: 1;" vector-effect="non-scaling-stroke"  transform=" translate(-514.68, -722.08)" d="m 507.1368092688339 722.0299880249071 v 1.29046974 h 10.510418099999999 c -0.11471250000000006 1.05388668 -0.4946953620000002 1.84255806 -1.147125 2.3659223700000003 c -0.6488414310000005 0.526961694 -1.5629348699999999 0.7886530260000002 -2.7387838799999997 0.7886530260000002 c -0.9463322400000002 0 -1.9106513999999999 -0.13622338800000014 -2.89644474 -0.41582822400000036 c -0.9929514 -0.28678125000000004 -2.01104778 -0.7097858880000002 -3.05419737 -1.2761536199999999 v 3.4556911199999996 c 1.06104474 0.40149375000000015 2.1221812499999997 0.7026094740000005 3.1833177599999996 0.9033655259999996 c 1.06104474 0.2079141120000002 2.1221812499999997 0.31545937500000026 3.1833177599999996 0.31545937500000026 c 2.54514918 0 4.52398569 -0.6452532240000003 5.9364177599999985 -1.9357963799999998 c 1.40518224 -1.29046974 2.10786513 -3.1008165300000003 2.10786513 -5.43452763 c 0 -2.29425 -0.6918632070000003 -4.0937679299999985 -2.07914112 -5.40580362 c -1.38370806 -1.31919375 -3.2872013999999994 -1.97874474 -5.7069927599999986 -1.97874474 c -2.20816974 0 -3.9754764 0.6703523189999999 -5.30540724 2.00746875 c -1.32635181 1.32993084 -1.99315263 3.10439556 -1.99315263 5.31981513 z m 4.61713224 -1.4912625 c 0 -0.8495883059999997 0.25093588800000005 -1.5343026300000002 0.7456312500000002 -2.0505088799999998 c 0.49828356900000026 -0.5233734869999999 1.147125 -0.7886530260000002 1.9501124999999995 -0.7886530260000002 c 0.8710991940000002 0 1.57734276 0.24375947400000014 2.1221812499999997 0.7312967760000003 s 0.8854336680000001 1.19016513 1.01809638 2.10786513 z" stroke-linecap="round" />
</g>
		<g transform="matrix(1 0 0 1 197.65 331.08)" id="svg_29"  >
<path style="stroke: none; stroke-width: 1; stroke-dasharray: none; stroke-linecap: butt; stroke-dashoffset: 0; stroke-linejoin: miter; stroke-miterlimit: 4; fill: rgb(150,148,252); fill-rule: nonzero; opacity: 1;" vector-effect="non-scaling-stroke"  transform=" translate(-497.65, -722.08)" d="m 497.3984417003537 722.7756192749071 c 0.9391741800000002 0 1.6454361000000002 0.15773427600000006 2.1221812499999997 0.47318447400000035 c 0.4696054440000001 0.31545937500000026 0.7026094740000005 0.7850648189999999 0.7026094740000005 1.40518224 c 0 0.5735624999999999 -0.18999143100000018 1.02525444 -0.5735624999999999 1.3479177600000005 c -0.3799828620000005 0.31545937500000026 -0.9069445560000002 0.47318447400000035 -1.57734276 0.47318447400000035 c -0.8495883059999997 0 -1.5629348699999999 -0.3011157240000002 -2.13649737 -0.9033655259999996 c -0.5807297370000005 -0.6094078620000005 -0.8746782240000005 -1.3693919399999999 -0.8746782240000005 -2.2799338799999997 v -0.5162062500000001 z m -6.85411776 -1.69205526 v 8.01555888 h 4.51682763 v -2.07914112 c 0.6022406250000003 0.8531765130000004 1.2833116800000002 1.4733673500000002 2.03619276 1.86403224 c 0.756386694 0.3799828620000005 1.67406834 0.5735624999999999 2.7531 0.5735624999999999 c 1.4553804300000004 0 2.6348084700000003 -0.4194164310000003 3.54177138 -1.2618375 c 0.910532763 -0.8495883059999997 1.3622338799999998 -1.9536915299999997 1.3622338799999998 -3.3123463799999997 c 0 -1.6418570700000004 -0.5628070560000002 -2.84633832 -1.69205526 -3.61344375 c -1.13638791 -0.774309375 -2.91801069 -1.16144112 -5.34844737 -1.16144112 h -2.65270362 v -0.3584719740000002 c 0 -0.706197681 0.2831930430000001 -1.2223764 0.8460092760000005 -1.5486187500000002 c 0.5663952630000003 -0.3333820560000003 1.44106431 -0.5018717760000003 2.6240713799999997 -0.5018717760000003 c 0.9678981899999999 0 1.86403224 0.09678981900000003 2.69574375 0.28678125000000004 c 0.8244983880000001 0.19357963800000014 1.5880798500000006 0.4803608880000004 2.29425 0.8603437500000003 v -3.42705888 c -0.95358207 -0.22942500000000016 -1.9142304300000001 -0.40508195700000027 -2.88212862 -0.5305407240000002 c -0.9750562499999994 -0.12187973700000003 -1.9501124999999995 -0.18640322400000003 -2.9251687499999997 -0.18640322400000003 c -2.53083306 0 -4.359075 0.5018717760000003 -5.4775677599999995 1.5055786199999999 c -1.1256508200000002 0.9965304300000001 -1.69205526 2.62049235 -1.69205526 4.8752812500000005 z" stroke-linecap="round" />
</g>
		<g transform="matrix(1 0 0 1 182.46 329.08)" id="svg_31"  >
<path style="stroke: none; stroke-width: 1; stroke-dasharray: none; stroke-linecap: butt; stroke-dashoffset: 0; stroke-linejoin: miter; stroke-miterlimit: 4; fill: rgb(150,148,252); fill-rule: nonzero; opacity: 1;" vector-effect="non-scaling-stroke"  transform=" translate(-482.46, -720.08)" d="m 481.409201134877 711.0603722688186 v 3.98630526 h -4.631540129999999 v 3.21195 h 4.631540129999999 v 5.965049999999999 c 0 0.6524296380000005 -0.129046974 1.08976875 -0.3871592760000003 1.31919375 s -0.7671421380000003 0.3441375000000002 -1.5343026300000002 0.3441375000000002 h -2.30856612 v 3.21195 h 3.8428687499999996 c 1.7780437500000001 0 3.03988125 -0.3656483880000002 3.7855125 -1.10408487 c 0.7384640130000004 -0.7456312500000002 1.10408487 -2.00031069 1.10408487 -3.7711963799999997 v -5.965049999999999 h 2.22257763 v -3.21195 h -2.22257763 v -3.98630526 z" stroke-linecap="round" />
</g>
		<g transform="matrix(1 0 0 1 167.51 331.08)" id="svg_33"  >
<path style="stroke: none; stroke-width: 1; stroke-dasharray: none; stroke-linecap: butt; stroke-dashoffset: 0; stroke-linejoin: miter; stroke-miterlimit: 4; fill: rgb(150,148,252); fill-rule: nonzero; opacity: 1;" vector-effect="non-scaling-stroke"  transform=" translate(-467.51, -722.08)" d="m 459.9684096899765 722.0299880249071 v 1.29046974 h 10.510418099999999 c -0.11471250000000006 1.05388668 -0.4946953620000002 1.84255806 -1.147125 2.3659223700000003 c -0.6488414310000005 0.526961694 -1.5629348699999999 0.7886530260000002 -2.7387838799999997 0.7886530260000002 c -0.9463322400000002 0 -1.9106513999999999 -0.13622338800000014 -2.89644474 -0.41582822400000036 c -0.9929514 -0.28678125000000004 -2.01104778 -0.7097858880000002 -3.05419737 -1.2761536199999999 v 3.4556911199999996 c 1.06104474 0.40149375000000015 2.1221812499999997 0.7026094740000005 3.1833177599999996 0.9033655259999996 c 1.06104474 0.2079141120000002 2.1221812499999997 0.31545937500000026 3.1833177599999996 0.31545937500000026 c 2.54514918 0 4.52398569 -0.6452532240000003 5.9364177599999985 -1.9357963799999998 c 1.40518224 -1.29046974 2.10786513 -3.1008165300000003 2.10786513 -5.43452763 c 0 -2.29425 -0.6918632070000003 -4.0937679299999985 -2.07914112 -5.40580362 c -1.38370806 -1.31919375 -3.2872013999999994 -1.97874474 -5.7069927599999986 -1.97874474 c -2.20816974 0 -3.9754764 0.6703523189999999 -5.30540724 2.00746875 c -1.32635181 1.32993084 -1.99315263 3.10439556 -1.99315263 5.31981513 z m 4.61713224 -1.4912625 c 0 -0.8495883059999997 0.25093588800000005 -1.5343026300000002 0.7456312500000002 -2.0505088799999998 c 0.49828356900000026 -0.5233734869999999 1.147125 -0.7886530260000002 1.9501124999999995 -0.7886530260000002 c 0.8710991940000002 0 1.57734276 0.24375947400000014 2.1221812499999997 0.7312967760000003 s 0.8854336680000001 1.19016513 1.01809638 2.10786513 z" stroke-linecap="round" />
</g>
		<g transform="matrix(1 0 0 1 150 328.5)" id="svg_35"  >
<path style="stroke: none; stroke-width: 1; stroke-dasharray: none; stroke-linecap: butt; stroke-dashoffset: 0; stroke-linejoin: miter; stroke-miterlimit: 4; fill: rgb(150,148,252); fill-rule: nonzero; opacity: 1;" vector-effect="non-scaling-stroke"  transform=" translate(-450, -719.5)" d="m 446.9781635430115 717.0863818175071 v -7.527984869999998 h -4.51682763 v 19.5295737 h 4.51682763 v -2.03619276 c 0.6129960690000001 0.8316656250000002 1.29046974 1.44106431 2.03619276 1.8210838799999998 s 1.61313306 0.5735624999999999 2.59534737 0.5735624999999999 c 1.73142459 0 3.1510147199999996 -0.6882750000000005 4.2586786199999995 -2.0648249999999995 c 1.1112429300000002 -1.37655 1.6633312500000001 -3.14385666 1.6633312500000001 -5.30540724 c 0 -2.1688004100000002 -0.5520516120000004 -3.94326513 -1.6633312500000001 -5.31981513 c -1.1076639000000001 -1.37655 -2.5272540300000004 -2.0648249999999995 -4.2586786199999995 -2.0648249999999995 c -0.9750562499999994 0 -1.8354 0.19715866800000004 -2.5810312499999997 0.5878969740000004 c -0.7527984870000004 0.39432651300000027 -1.4374852800000002 0.9965304300000001 -2.0505088799999998 1.80676776 z m 2.95389276 9.105327630000001 c -0.95358207 0 -1.6848054300000008 -0.34772570700000033 -2.19385362 -1.0467286199999999 c -0.505450806 -0.706197681 -0.7599657240000003 -1.72784556 -0.7599657240000003 -3.06860526 c 0 -1.3370889000000006 0.2545149180000002 -2.3551852799999997 0.7599657240000003 -3.05419737 c 0.5090390130000003 -0.706197681 1.24036332 -1.06104474 2.19385362 -1.06104474 c 0.9571610999999999 0 1.68838446 0.3548929440000001 2.19385362 1.06104474 c 0.5090390130000003 0.6990304440000003 0.7599657240000003 1.7171084700000003 0.7599657240000003 3.05419737 c 0 1.3406679300000004 -0.25093588800000005 2.3623433400000002 -0.7599657240000003 3.06860526 c -0.505450806 0.6990304440000003 -1.2367842900000001 1.0467286199999999 -2.19385362 1.0467286199999999 z" stroke-linecap="round" />
</g>
		<g transform="matrix(1 0 0 1 121.58 328.5)" id="svg_37"  >
<path style="stroke: none; stroke-width: 1; stroke-dasharray: none; stroke-linecap: butt; stroke-dashoffset: 0; stroke-linejoin: miter; stroke-miterlimit: 4; fill: rgb(150,148,252); fill-rule: nonzero; opacity: 1;" vector-effect="non-scaling-stroke"  transform=" translate(-421.58, -719.5)" d="m 421.6437598293304 726.1916176775071 c -0.96431916 0 -1.6992133200000001 -0.34772570700000033 -2.20816974 -1.0467286199999999 c -0.505450806 -0.706197681 -0.7599657240000003 -1.72784556 -0.7599657240000003 -3.06860526 c 0 -1.3370889000000006 0.2545149180000002 -2.3551852799999997 0.7599657240000003 -3.05419737 c 0.5090390130000003 -0.706197681 1.2439423500000002 -1.06104474 2.20816974 -1.06104474 c 0.9678981899999999 0 1.70637138 0.3548929440000001 2.22257763 1.06104474 c 0.5090390130000003 0.7097858880000002 0.7599657240000003 1.72784556 0.7599657240000003 3.05419737 c 0 1.32993084 -0.25093588800000005 2.34802722 -0.7599657240000003 3.05419737 c -0.5162062500000001 0.7097858880000002 -1.2546794399999999 1.06104474 -2.22257763 1.06104474 z m 2.9825249999999994 -9.105327630000001 c -0.6201633060000001 -0.8101547370000003 -1.30487763 -1.41243207 -2.0505088799999998 -1.80676776 c -0.7527984870000004 -0.39073830600000015 -1.62029112 -0.5878969740000004 -2.59534737 -0.5878969740000004 c -1.7385826500000001 0 -3.1617518099999997 0.6882750000000005 -4.27299474 2.0648249999999995 c -1.1076639000000001 1.37655 -1.6633312500000001 3.1510147199999996 -1.6633312500000001 5.31981513 c 0 2.16164235 0.5556398190000003 3.9288572399999997 1.6633312500000001 5.30540724 c 1.1112429300000002 1.37655 2.53441209 2.0648249999999995 4.27299474 2.0648249999999995 c 0.9750562499999994 0 1.84255806 -0.19357963800000014 2.59534737 -0.5735624999999999 c 0.7456312500000002 -0.39073830600000015 1.4303272200000001 -0.9965304300000001 2.0505088799999998 -1.8210838799999998 v 2.03619276 h 4.48810362 v -19.5295737 h -4.48810362 z" stroke-linecap="round" />
</g>
		<g transform="matrix(1 0 0 1 104.54 333.85)" id="svg_39"  >
<path style="stroke: none; stroke-width: 1; stroke-dasharray: none; stroke-linecap: butt; stroke-dashoffset: 0; stroke-linejoin: miter; stroke-miterlimit: 4; fill: rgb(150,148,252); fill-rule: nonzero; opacity: 1;" vector-effect="non-scaling-stroke"  transform=" translate(-404.54, -724.84)" d="m 412.52624480371475 715.0427330358482 h -4.48810362 l -3.7855125 9.5358207 l -3.21195 -9.5358207 h -4.48810362 l 5.90769375 15.386158200000002 c 0.5950733880000002 1.5557768100000002 1.2868907100000002 2.64554556 2.07914112 3.2693062499999996 c 0.7958202630000003 0.6309187500000003 1.8354 0.9463322400000002 3.1258697399999997 0.9463322400000002 h 2.60975526 v -2.95389276 h -1.40518224 c -0.763553931 0 -1.31919375 -0.12546794400000008 -1.6633312500000001 -0.3728156250000001 c -0.3513047370000002 -0.24018044400000016 -0.6237515130000006 -0.6703523189999999 -0.8173219740000003 -1.29046974 l -0.129046974 -0.3871592760000003 z" stroke-linecap="round" />
</g>
		<g transform="matrix(1 0 0 1 74.29 328.73)" id="svg_41"  >
<path style="stroke: none; stroke-width: 1; stroke-dasharray: none; stroke-linecap: butt; stroke-dashoffset: 0; stroke-linejoin: miter; stroke-miterlimit: 4; fill: rgb(150,148,252); fill-rule: nonzero; opacity: 1;" vector-effect="non-scaling-stroke"  transform=" translate(-374.29, -719.73)" d="m 384.7045553868817 710.3666461637962 h -6.13711875 l -4.27299474 10.0231194 l -4.28740263 -10.0231194 h -6.13711875 v 18.7265862 h 4.57418388 v -13.7086026 l 4.31603487 10.1093832 h 3.05419737 l 4.31603487 -10.1093832 v 13.7086026 h 4.57418388 z" stroke-linecap="round" />
</g>
		<g transform="matrix(1 0 0 1 53.24 331.08)" id="svg_43"  >
<path style="stroke: none; stroke-width: 1; stroke-dasharray: none; stroke-linecap: butt; stroke-dashoffset: 0; stroke-linejoin: miter; stroke-miterlimit: 4; fill: rgb(150,148,252); fill-rule: nonzero; opacity: 1;" vector-effect="non-scaling-stroke"  transform=" translate(-353.24, -722.08)" d="m 352.9883528606322 722.7756192749071 c 0.9391741800000002 0 1.6454361000000002 0.15773427600000006 2.1221812499999997 0.47318447400000035 c 0.4696054440000001 0.31545937500000026 0.7026094740000005 0.7850648189999999 0.7026094740000005 1.40518224 c 0 0.5735624999999999 -0.18999143100000018 1.02525444 -0.5735624999999999 1.3479177600000005 c -0.3799828620000005 0.31545937500000026 -0.9069445560000002 0.47318447400000035 -1.57734276 0.47318447400000035 c -0.8495883059999997 0 -1.5629348699999999 -0.3011157240000002 -2.13649737 -0.9033655259999996 c -0.5807297370000005 -0.6094078620000005 -0.8746782240000005 -1.3693919399999999 -0.8746782240000005 -2.2799338799999997 v -0.5162062500000001 z m -6.85411776 -1.69205526 v 8.01555888 h 4.51682763 v -2.07914112 c 0.6022406250000003 0.8531765130000004 1.2833116800000002 1.4733673500000002 2.03619276 1.86403224 c 0.756386694 0.3799828620000005 1.67406834 0.5735624999999999 2.7531 0.5735624999999999 c 1.4553804300000004 0 2.6348084700000003 -0.4194164310000003 3.54177138 -1.2618375 c 0.910532763 -0.8495883059999997 1.3622338799999998 -1.9536915299999997 1.3622338799999998 -3.3123463799999997 c 0 -1.6418570700000004 -0.5628070560000002 -2.84633832 -1.69205526 -3.61344375 c -1.13638791 -0.774309375 -2.91801069 -1.16144112 -5.34844737 -1.16144112 h -2.65270362 v -0.3584719740000002 c 0 -0.706197681 0.2831930430000001 -1.2223764 0.8460092760000005 -1.5486187500000002 c 0.5663952630000003 -0.3333820560000003 1.44106431 -0.5018717760000003 2.6240713799999997 -0.5018717760000003 c 0.9678981899999999 0 1.86403224 0.09678981900000003 2.69574375 0.28678125000000004 c 0.8244983880000001 0.19357963800000014 1.5880798500000006 0.4803608880000004 2.29425 0.8603437500000003 v -3.42705888 c -0.95358207 -0.22942500000000016 -1.9142304300000001 -0.40508195700000027 -2.88212862 -0.5305407240000002 c -0.9750562499999994 -0.12187973700000003 -1.9501124999999995 -0.18640322400000003 -2.9251687499999997 -0.18640322400000003 c -2.53083306 0 -4.359075 0.5018717760000003 -5.4775677599999995 1.5055786199999999 c -1.1256508200000002 0.9965304300000001 -1.69205526 2.62049235 -1.69205526 4.8752812500000005 z" stroke-linecap="round" />
</g>
		<g transform="matrix(1 0 0 1 35.78 331.08)" id="svg_45"  >
<path style="stroke: none; stroke-width: 1; stroke-dasharray: none; stroke-linecap: butt; stroke-dashoffset: 0; stroke-linejoin: miter; stroke-miterlimit: 4; fill: rgb(150,148,252); fill-rule: nonzero; opacity: 1;" vector-effect="non-scaling-stroke"  transform=" translate(-335.78, -722.08)" d="m 338.35785278719925 721.9175169213818 l 5.06166612 -6.8684338799999995 h -4.746252630000001 l -2.88212862 4.15828224 l -2.910852630000001 -4.15828224 h -4.746252630000001 l 5.06166612 6.839709869999999 l -5.31981513 7.212571379999999 h 4.76056875 l 3.15459375 -4.44515526 l 3.1258697399999997 4.44515526 h 4.76056875 z" stroke-linecap="round" />
</g>
		<g transform="matrix(1 0 0 1 23.05 328.33)" id="svg_47"  >
<path style="stroke: none; stroke-width: 1; stroke-dasharray: none; stroke-linecap: butt; stroke-dashoffset: 0; stroke-linejoin: miter; stroke-miterlimit: 4; fill: rgb(150,148,252); fill-rule: nonzero; opacity: 1;" vector-effect="non-scaling-stroke"  transform=" translate(-323.05, -719.33)" d="m 325.2941687484218 715.0381169841744 h -4.48810362 v 14.051822399999999 h 4.48810362 z m 0 -5.4775677599999995 h -4.48810362 v 3.6708000000000007 h 4.48810362 z" stroke-linecap="round" />
</g>
		<g transform="matrix(1 0 0 1 5.16 330.9)" id="svg_49"  >
<path style="stroke: none; stroke-width: 1; stroke-dasharray: none; stroke-linecap: butt; stroke-dashoffset: 0; stroke-linejoin: miter; stroke-miterlimit: 4; fill: rgb(150,148,252); fill-rule: nonzero; opacity: 1;" vector-effect="non-scaling-stroke"  transform=" translate(-305.16, -721.9)" d="m 303.42183417303625 717.3786991097228 c -0.5628070560000002 -0.867510987 -1.2367842900000001 -1.5343026300000002 -2.02178487 -1.99315263 c -0.7814766120000002 -0.4588500000000002 -1.6418570700000004 -0.6882750000000005 -2.5810312499999997 -0.6882750000000005 c -1.61313306 0 -2.842759290000001 0.5018717760000003 -3.68511612 1.5055786199999999 c -0.8495883059999997 0.9965304300000001 -1.2761536199999999 2.43759474 -1.2761536199999999 4.3304427599999995 v 8.560397369999999 h 4.51682763 v -7.32728388 v -0.3298030260000002 c -0.007169990100000007 -0.12187973700000003 -0.014339062500000012 -0.2939484870000003 -0.014339062500000012 -0.5162062500000001 c 0 -0.9929514 0.15055786200000004 -1.7099504100000007 0.4445155260000003 -2.1509052599999996 c 0.28678125000000004 -0.44809455600000014 0.756386694 -0.6739405260000005 1.40518224 -0.6739405260000005 c 0.8531765130000004 0 1.51273668 0.3548929440000001 1.97874474 1.06104474 c 0.4696054440000001 0.6990304440000003 0.7097858880000002 1.71352944 0.716953125 3.03988125 v 6.89706612 h 4.51682763 v -7.32728388 c 0 -1.5557768100000002 0.13622338800000014 -2.5559780400000003 0.40149375000000015 -2.9968411199999996 c 0.2688585690000003 -0.44809455600000014 0.7456312500000002 -0.6739405260000005 1.4339062500000002 -0.6739405260000005 c 0.8603437500000003 0 1.5271445700000001 0.3548929440000001 1.99315263 1.06104474 c 0.4696054440000001 0.6990304440000003 0.7026094740000005 1.70637138 0.7026094740000005 3.02556513 v 6.911382239999999 h 4.51682763 v -14.051822399999999 h -4.51682763 v 2.0505088799999998 c -0.5520516120000004 -0.792232056 -1.1830070699999997 -1.39086612 -1.8927562500000001 -1.7923598699999999 c -0.716953125 -0.40149375000000015 -1.5055786199999999 -0.6022406250000003 -2.3659223700000003 -0.6022406250000003 c -0.9750562499999994 0 -1.8354 0.2365922370000002 -2.5810312499999997 0.7026094740000005 c -0.7456312500000002 0.4696054440000001 -1.30845666 1.12922985 -1.69205526 1.97874474 z" stroke-linecap="round" />
</g>
		<g transform="matrix(1 0 0 1 -28.73 328.73)" id="svg_51"  >
<path style="stroke: none; stroke-width: 1; stroke-dasharray: none; stroke-linecap: butt; stroke-dashoffset: 0; stroke-linejoin: miter; stroke-miterlimit: 4; fill: rgb(150,148,252); fill-rule: nonzero; opacity: 1;" vector-effect="non-scaling-stroke"  transform=" translate(-271.27, -719.73)" d="m 280.43721238790033 710.3666461637962 h -4.817925 v 6.82539375 l -6.96883026 -6.82539375 h -5.60659638 l 9.019247369999999 8.86149474 l -9.9515388 9.865275 h 6.05113026 l 7.456312499999999 -7.384640130000001 v 7.384640130000001 h 4.817925 z" stroke-linecap="round" />
</g>
		<g transform="matrix(1 0 0 1 -46.22 331.25)" id="svg_53"  >
<path style="stroke: none; stroke-width: 1; stroke-dasharray: none; stroke-linecap: butt; stroke-dashoffset: 0; stroke-linejoin: miter; stroke-miterlimit: 4; fill: rgb(150,148,252); fill-rule: nonzero; opacity: 1;" vector-effect="non-scaling-stroke"  transform=" translate(-253.78, -722.25)" d="m 260.83781962041854 723.6196920823958 v -8.57480526 h -4.51682763 v 1.40518224 c 0 0.7671421380000003 0.007169990100000007 1.7206875000000001 0.014339062500000012 2.8678125 c 0.010754526300000015 1.147125 0.014339062500000012 1.9142304300000001 0.014339062500000012 2.29425 c 0 1.1399669399999999 -0.028678125000000023 1.9572705599999998 -0.0860343750000001 2.45200263 c -0.06452624010000009 0.49828356900000026 -0.16490151300000008 0.8567555430000002 -0.3011157240000002 1.0754526299999998 c -0.18999143100000018 0.2975366940000002 -0.43376008200000016 0.526961694 -0.7312967760000003 0.6882750000000005 c -0.2939484870000003 0.15414606900000014 -0.634506957 0.22942500000000016 -1.01809638 0.22942500000000016 c -0.93559515 0 -1.6704893100000002 -0.3584719740000002 -2.20816974 -1.0754526299999998 c -0.534128931 -0.716953125 -0.8029875000000002 -1.71352944 -0.8029875000000002 -2.9968411199999996 v -6.9401062499999995 h -4.48810362 v 14.051822399999999 h 4.48810362 v -2.03619276 c 0.6811077630000002 0.8244983880000001 1.3980241800000006 1.4303272200000001 2.1509052599999996 1.8210838799999998 c 0.756386694 0.3799828620000005 1.5916588799999998 0.5735624999999999 2.5093588799999997 0.5735624999999999 c 1.6167120900000005 0 2.84991735 -0.4946953620000002 3.69943224 -1.4912625 c 0.8531765130000004 -0.9929514 1.2761536199999999 -2.4412655399999994 1.2761536199999999 -4.3447588800000005 z" stroke-linecap="round" />
</g>
		<g transform="matrix(1 0 0 1 -59.89 328.33)" id="svg_55"  >
<path style="stroke: none; stroke-width: 1; stroke-dasharray: none; stroke-linecap: butt; stroke-dashoffset: 0; stroke-linejoin: miter; stroke-miterlimit: 4; fill: rgb(150,148,252); fill-rule: nonzero; opacity: 1;" vector-effect="non-scaling-stroke"  transform=" translate(-240.11, -719.33)" d="m 242.35615611414448 709.5603656841744 h -4.48810362 v 19.5295737 h 4.48810362 z" stroke-linecap="round" />
</g>
		<g transform="matrix(1 0 0 1 -68.72 328.33)" id="svg_57"  >
<path style="stroke: none; stroke-width: 1; stroke-dasharray: none; stroke-linecap: butt; stroke-dashoffset: 0; stroke-linejoin: miter; stroke-miterlimit: 4; fill: rgb(150,148,252); fill-rule: nonzero; opacity: 1;" vector-effect="non-scaling-stroke"  transform=" translate(-231.28, -719.33)" d="m 233.5241687484218 715.0381169841744 h -4.48810362 v 14.051822399999999 h 4.48810362 z m 0 -5.4775677599999995 h -4.48810362 v 3.6708000000000007 h 4.48810362 z" stroke-linecap="round" />
</g>
		<g transform="matrix(1 0 0 1 -83.02 328.33)" id="svg_59"  >
<path style="stroke: none; stroke-width: 1; stroke-dasharray: none; stroke-linecap: butt; stroke-dashoffset: 0; stroke-linejoin: miter; stroke-miterlimit: 4; fill: rgb(150,148,252); fill-rule: nonzero; opacity: 1;" vector-effect="non-scaling-stroke"  transform=" translate(-216.98, -719.33)" d="m 224.68306162571446 709.5603656841744 h -4.48810362 v 10.6398138 l -5.162062499999999 -5.162062499999999 h -5.21941875 l 6.85411776 6.45253224 l -7.39895625 7.59965724 h 5.44884375 l 5.4775677599999995 -5.86465362 v 5.86465362 h 4.48810362 z" stroke-linecap="round" />
</g>
		<g transform="matrix(1 0 0 1 -99.11 331.08)" id="svg_61"  >
<path style="stroke: none; stroke-width: 1; stroke-dasharray: none; stroke-linecap: butt; stroke-dashoffset: 0; stroke-linejoin: miter; stroke-miterlimit: 4; fill: rgb(150,148,252); fill-rule: nonzero; opacity: 1;" vector-effect="non-scaling-stroke"  transform=" translate(-200.89, -722.08)" d="m 200.87102438607678 717.914195294907 c 0.9965304300000001 0 1.75656957 0.3584719740000002 2.2799338799999997 1.0754526299999998 c 0.526961694 0.716953125 0.7886530260000002 1.74931974 0.7886530260000002 3.0972375 s -0.26169133199999994 2.3803302599999996 -0.7886530260000002 3.0972375 c -0.5233734869999999 0.7097858880000002 -1.2833116800000002 1.06104474 -2.2799338799999997 1.06104474 c -0.9750562499999994 0 -1.7206875000000001 -0.3513047370000002 -2.23689375 -1.06104474 c -0.5233734869999999 -0.716953125 -0.7886530260000002 -1.74931974 -0.7886530260000002 -3.0972375 s 0.26527036200000015 -2.3803302599999996 0.7886530260000002 -3.0972375 c 0.5162062500000001 -0.716953125 1.2618375 -1.0754526299999998 2.23689375 -1.0754526299999998 z m 0 -3.21195 c -2.41612056 0 -4.30529778 0.6560086680000006 -5.66395263 1.9644286199999998 c -1.3550758200000002 1.3012986000000004 -2.03619276 3.1079745899999995 -2.03619276 5.42011974 c 0 2.30498709 0.6811077630000002 4.1117548500000005 2.03619276 5.42011974 c 1.3586548500000002 1.3012986000000004 3.24783207 1.9501124999999995 5.66395263 1.9501124999999995 c 2.43043668 0 4.32677196 -0.6488414310000005 5.69258487 -1.9501124999999995 c 1.3693919399999999 -1.30845666 2.0505088799999998 -3.1151326499999996 2.0505088799999998 -5.42011974 c 0 -2.3121451499999996 -0.6811077630000002 -4.11891291 -2.0505088799999998 -5.42011974 c -1.3658129100000003 -1.30845666 -3.26214819 -1.9644286199999998 -5.69258487 -1.9644286199999998 z" stroke-linecap="round" />
</g>
		<g transform="matrix(1 0 0 1 -116.37 331.07)" id="svg_63"  >
<path style="stroke: none; stroke-width: 1; stroke-dasharray: none; stroke-linecap: butt; stroke-dashoffset: 0; stroke-linejoin: miter; stroke-miterlimit: 4; fill: rgb(150,148,252); fill-rule: nonzero; opacity: 1;" vector-effect="non-scaling-stroke"  transform=" translate(-183.63, -722.07)" d="m 191.6244498829928 715.0426772673584 h -4.48810362 l -3.51304737 9.707430599999999 l -3.48441513 -9.707430599999999 h -4.50241974 l 5.53483224 14.051822399999999 h 4.9326375 z" stroke-linecap="round" />
</g>
		<g transform="matrix(1 0 0 1 249.01 354.09)" id="svg_65"  >
<path style="stroke: none; stroke-width: 1; stroke-dasharray: none; stroke-linecap: butt; stroke-dashoffset: 0; stroke-linejoin: miter; stroke-miterlimit: 4; fill: rgb(150,148,252); fill-rule: nonzero; opacity: 1;" vector-effect="non-scaling-stroke"  transform=" translate(-549, -745.09)" d="m 543.5488483322864 735.3249471539009 v 2.95389276 h 2.4806348700000003 c 0.6309187500000003 0 1.0754526299999998 0.11471250000000006 1.33350987 0.3441375000000002 c 0.25093588800000005 0.22942500000000016 0.3728156250000001 0.6309187500000003 0.3728156250000001 1.20448125 v 0.9750562499999994 h -3.8428687499999996 v 3.21195 h 3.8428687499999996 v 10.839872399999999 h 4.48810362 v -10.839872399999999 h 2.23689375 v -3.21195 h -2.23689375 v -0.9750562499999994 c 0 -1.5271445700000001 -0.4230046380000002 -2.65986168 -1.2761536199999999 -3.3983348700000002 c -0.8495883059999997 -0.7348758060000002 -2.17237944 -1.10408487 -3.9718973699999998 -1.10408487 z" stroke-linecap="round" />
</g>
		<g transform="matrix(1 0 0 1 236.36 356.66)" id="svg_67"  >
<path style="stroke: none; stroke-width: 1; stroke-dasharray: none; stroke-linecap: butt; stroke-dashoffset: 0; stroke-linejoin: miter; stroke-miterlimit: 4; fill: rgb(150,148,252); fill-rule: nonzero; opacity: 1;" vector-effect="non-scaling-stroke"  transform=" translate(-536.36, -747.65)" d="m 531.1379151951058 744.6276498177306 c 0.40149375000000015 -0.17923598700000007 0.7993992930000003 -0.31545937500000026 1.19016513 -0.40149375000000015 c 0.38357106900000026 -0.09320161200000006 0.7707211680000001 -0.14339062500000002 1.16144112 -0.14339062500000002 c 1.1578620900000003 0 2.04692985 0.3728156250000001 2.66701974 1.1184927600000003 c 0.6237515130000006 0.7384640130000004 0.9320161199999998 1.7923598699999999 0.9320161199999998 3.1689098700000007 v 6.48125625 h 4.48810362 v -14.051822399999999 h -4.48810362 v 2.30856612 c -0.5735624999999999 -0.9177000000000002 -1.23320526 -1.5845008200000001 -1.97874474 -2.00746875 c -0.7527984870000004 -0.43017187500000026 -1.6525941600000005 -0.6452532240000003 -2.69574375 -0.6452532240000003 c -0.15055786200000004 0 -0.31545937500000026 0.010754526300000015 -0.487528125 0.028678125000000023 c -0.17923598700000007 0.010754526300000015 -0.4373391120000003 0.03584719740000003 -0.774309375 0.07169531250000008 z" stroke-linecap="round" />
</g>
		<g transform="matrix(1 0 0 1 222.2 356.84)" id="svg_69"  >
<path style="stroke: none; stroke-width: 1; stroke-dasharray: none; stroke-linecap: butt; stroke-dashoffset: 0; stroke-linejoin: miter; stroke-miterlimit: 4; fill: rgb(150,148,252); fill-rule: nonzero; opacity: 1;" vector-effect="non-scaling-stroke"  transform=" translate(-522.2, -747.84)" d="m 522.1764165949392 743.6718835029147 c 0.9965304300000001 0 1.75656957 0.3584719740000002 2.2799338799999997 1.0754526299999998 c 0.526961694 0.716953125 0.7886530260000002 1.74931974 0.7886530260000002 3.0972375 s -0.26169133199999994 2.3803302599999996 -0.7886530260000002 3.0972375 c -0.5233734869999999 0.7097858880000002 -1.2833116800000002 1.06104474 -2.2799338799999997 1.06104474 c -0.9750562499999994 0 -1.7206875000000001 -0.3513047370000002 -2.23689375 -1.06104474 c -0.5233734869999999 -0.716953125 -0.7886530260000002 -1.74931974 -0.7886530260000002 -3.0972375 s 0.26527036200000015 -2.3803302599999996 0.7886530260000002 -3.0972375 c 0.5162062500000001 -0.716953125 1.2618375 -1.0754526299999998 2.23689375 -1.0754526299999998 z m 0 -3.21195 c -2.41612056 0 -4.30529778 0.6560086680000006 -5.66395263 1.9644286199999998 c -1.3550758200000002 1.3012986000000004 -2.03619276 3.1079745899999995 -2.03619276 5.42011974 c 0 2.30498709 0.6811077630000002 4.1117548500000005 2.03619276 5.42011974 c 1.3586548500000002 1.3012986000000004 3.24783207 1.9501124999999995 5.66395263 1.9501124999999995 c 2.43043668 0 4.32677196 -0.6488414310000005 5.69258487 -1.9501124999999995 c 1.3693919399999999 -1.30845666 2.0505088799999998 -3.1151326499999996 2.0505088799999998 -5.42011974 c 0 -2.3121451499999996 -0.6811077630000002 -4.11891291 -2.0505088799999998 -5.42011974 c -1.3658129100000003 -1.30845666 -3.26214819 -1.9644286199999998 -5.69258487 -1.9644286199999998 z" stroke-linecap="round" />
</g>
		<g transform="matrix(1 0 0 1 199.88 356.66)" id="svg_71"  >
<path style="stroke: none; stroke-width: 1; stroke-dasharray: none; stroke-linecap: butt; stroke-dashoffset: 0; stroke-linejoin: miter; stroke-miterlimit: 4; fill: rgb(150,148,252); fill-rule: nonzero; opacity: 1;" vector-effect="non-scaling-stroke"  transform=" translate(-499.88, -747.65)" d="m 498.13294301703036 743.1363873177306 c -0.5628070560000002 -0.867510987 -1.2367842900000001 -1.5343026300000002 -2.02178487 -1.99315263 c -0.7814766120000002 -0.4588500000000002 -1.6418570700000004 -0.6882750000000005 -2.5810312499999997 -0.6882750000000005 c -1.61313306 0 -2.842759290000001 0.5018717760000003 -3.68511612 1.5055786199999999 c -0.8495883059999997 0.9965304300000001 -1.2761536199999999 2.43759474 -1.2761536199999999 4.3304427599999995 v 8.560397369999999 h 4.51682763 v -7.32728388 v -0.3298030260000002 c -0.007169990100000007 -0.12187973700000003 -0.014339062500000012 -0.2939484870000003 -0.014339062500000012 -0.5162062500000001 c 0 -0.9929514 0.15055786200000004 -1.7099504100000007 0.4445155260000003 -2.1509052599999996 c 0.28678125000000004 -0.44809455600000014 0.756386694 -0.6739405260000005 1.40518224 -0.6739405260000005 c 0.8531765130000004 0 1.51273668 0.3548929440000001 1.97874474 1.06104474 c 0.4696054440000001 0.6990304440000003 0.7097858880000002 1.71352944 0.716953125 3.03988125 v 6.89706612 h 4.51682763 v -7.32728388 c 0 -1.5557768100000002 0.13622338800000014 -2.5559780400000003 0.40149375000000015 -2.9968411199999996 c 0.2688585690000003 -0.44809455600000014 0.7456312500000002 -0.6739405260000005 1.4339062500000002 -0.6739405260000005 c 0.8603437500000003 0 1.5271445700000001 0.3548929440000001 1.99315263 1.06104474 c 0.4696054440000001 0.6990304440000003 0.7026094740000005 1.70637138 0.7026094740000005 3.02556513 v 6.911382239999999 h 4.51682763 v -14.051822399999999 h -4.51682763 v 2.0505088799999998 c -0.5520516120000004 -0.792232056 -1.1830070699999997 -1.39086612 -1.8927562500000001 -1.7923598699999999 c -0.716953125 -0.40149375000000015 -1.5055786199999999 -0.6022406250000003 -2.3659223700000003 -0.6022406250000003 c -0.9750562499999994 0 -1.8354 0.2365922370000002 -2.5810312499999997 0.7026094740000005 c -0.7456312500000002 0.4696054440000001 -1.30845666 1.12922985 -1.69205526 1.97874474 z" stroke-linecap="round" />
</g>
		<g transform="matrix(1 0 0 1 171.5 354.84)" id="svg_73"  >
<path style="stroke: none; stroke-width: 1; stroke-dasharray: none; stroke-linecap: butt; stroke-dashoffset: 0; stroke-linejoin: miter; stroke-miterlimit: 4; fill: rgb(150,148,252); fill-rule: nonzero; opacity: 1;" vector-effect="non-scaling-stroke"  transform=" translate(-471.5, -745.84)" d="m 470.4519992397355 736.8180604768264 v 3.98630526 h -4.631540129999999 v 3.21195 h 4.631540129999999 v 5.965049999999999 c 0 0.6524296380000005 -0.129046974 1.08976875 -0.3871592760000003 1.31919375 s -0.7671421380000003 0.3441375000000002 -1.5343026300000002 0.3441375000000002 h -2.30856612 v 3.21195 h 3.8428687499999996 c 1.7780437500000001 0 3.03988125 -0.3656483880000002 3.7855125 -1.10408487 c 0.7384640130000004 -0.7456312500000002 1.10408487 -2.00031069 1.10408487 -3.7711963799999997 v -5.965049999999999 h 2.22257763 v -3.21195 h -2.22257763 v -3.98630526 z" stroke-linecap="round" />
</g>
		<g transform="matrix(1 0 0 1 155.98 354.09)" id="svg_75"  >
<path style="stroke: none; stroke-width: 1; stroke-dasharray: none; stroke-linecap: butt; stroke-dashoffset: 0; stroke-linejoin: miter; stroke-miterlimit: 4; fill: rgb(150,148,252); fill-rule: nonzero; opacity: 1;" vector-effect="non-scaling-stroke"  transform=" translate(-455.98, -745.09)" d="m 448.9166338112832 746.2941234839009 v 8.560397369999999 h 4.51682763 v -6.52429638 c 0 -1.23320526 0.028678125000000023 -2.07914112 0.0860343750000001 -2.5379911200000005 s 0.15414606900000014 -0.7958202630000003 0.28678125000000004 -1.01809638 c 0.17206875000000008 -0.28678125000000004 0.41224919400000004 -0.5090390130000003 0.716953125 -0.6739405260000005 c 0.2975366940000002 -0.16131330600000013 0.6380859870000002 -0.24375947400000014 1.01809638 -0.24375947400000014 c 0.9391741800000002 0 1.67406834 0.3656483880000002 2.20816974 1.08976875 c 0.5377171380000001 0.716953125 0.8029875000000002 1.7171084700000003 0.8029875000000002 2.9968411199999996 v 6.911382239999999 h 4.48810362 v -19.5295737 h -4.48810362 v 7.527984869999998 c -0.6775195559999999 -0.8101547370000003 -1.3944451499999997 -1.41243207 -2.1509052599999996 -1.80676776 c -0.763553931 -0.39073830600000015 -1.6059750000000004 -0.5878969740000004 -2.523675 -0.5878969740000004 c -1.6238701500000001 0 -2.8570754099999998 0.5018717760000003 -3.69943224 1.5055786199999999 c -0.8388328620000002 0.9965304300000001 -1.2618375 2.43759474 -1.2618375 4.3304427599999995 z" stroke-linecap="round" />
</g>
		<g transform="matrix(1 0 0 1 138.22 356.85)" id="svg_77"  >
<path style="stroke: none; stroke-width: 1; stroke-dasharray: none; stroke-linecap: butt; stroke-dashoffset: 0; stroke-linejoin: miter; stroke-miterlimit: 4; fill: rgb(150,148,252); fill-rule: nonzero; opacity: 1;" vector-effect="non-scaling-stroke"  transform=" translate(-438.22, -747.84)" d="m 430.6779128485459 747.7945694946335 v 1.29046974 h 10.510418099999999 c -0.11471250000000006 1.05388668 -0.4946953620000002 1.84255806 -1.147125 2.3659223700000003 c -0.6488414310000005 0.526961694 -1.5629348699999999 0.7886530260000002 -2.7387838799999997 0.7886530260000002 c -0.9463322400000002 0 -1.9106513999999999 -0.13622338800000014 -2.89644474 -0.41582822400000036 c -0.9929514 -0.28678125000000004 -2.01104778 -0.7097858880000002 -3.05419737 -1.2761536199999999 v 3.4556911199999996 c 1.06104474 0.40149375000000015 2.1221812499999997 0.7026094740000005 3.1833177599999996 0.9033655259999996 c 1.06104474 0.2079141120000002 2.1221812499999997 0.31545937500000026 3.1833177599999996 0.31545937500000026 c 2.54514918 0 4.52398569 -0.6452532240000003 5.9364177599999985 -1.9357963799999998 c 1.40518224 -1.29046974 2.10786513 -3.1008165300000003 2.10786513 -5.43452763 c 0 -2.29425 -0.6918632070000003 -4.0937679299999985 -2.07914112 -5.40580362 c -1.38370806 -1.31919375 -3.2872013999999994 -1.97874474 -5.7069927599999986 -1.97874474 c -2.20816974 0 -3.9754764 0.6703523189999999 -5.30540724 2.00746875 c -1.32635181 1.32993084 -1.99315263 3.10439556 -1.99315263 5.31981513 z m 4.61713224 -1.4912625 c 0 -0.8495883059999997 0.25093588800000005 -1.5343026300000002 0.7456312500000002 -2.0505088799999998 c 0.49828356900000026 -0.5233734869999999 1.147125 -0.7886530260000002 1.9501124999999995 -0.7886530260000002 c 0.8710991940000002 0 1.57734276 0.24375947400000014 2.1221812499999997 0.7312967760000003 s 0.8854336680000001 1.19016513 1.01809638 2.10786513 z" stroke-linecap="round" />
</g>
		<g transform="matrix(1 0 0 1 109.67 354.49)" id="svg_79"  >
<path style="stroke: none; stroke-width: 1; stroke-dasharray: none; stroke-linecap: butt; stroke-dashoffset: 0; stroke-linejoin: miter; stroke-miterlimit: 4; fill: rgb(150,148,252); fill-rule: nonzero; opacity: 1;" vector-effect="non-scaling-stroke"  transform=" translate(-409.67, -745.49)" d="m 418.05963919415944 736.124334371804 h -5.3914875 l -6.8110776300000015 12.8478 v -12.8478 h -4.57418388 v 18.7265862 h 5.3914875 l 6.8110776300000015 -12.8478 v 12.8478 h 4.57418388 z" stroke-linecap="round" />
</g>
		<g transform="matrix(1 0 0 1 90.04 356.84)" id="svg_81"  >
<path style="stroke: none; stroke-width: 1; stroke-dasharray: none; stroke-linecap: butt; stroke-dashoffset: 0; stroke-linejoin: miter; stroke-miterlimit: 4; fill: rgb(150,148,252); fill-rule: nonzero; opacity: 1;" vector-effect="non-scaling-stroke"  transform=" translate(-390.04, -747.84)" d="m 390.02072101693625 743.6718835029147 c 0.9965304300000001 0 1.75656957 0.3584719740000002 2.2799338799999997 1.0754526299999998 c 0.526961694 0.716953125 0.7886530260000002 1.74931974 0.7886530260000002 3.0972375 s -0.26169133199999994 2.3803302599999996 -0.7886530260000002 3.0972375 c -0.5233734869999999 0.7097858880000002 -1.2833116800000002 1.06104474 -2.2799338799999997 1.06104474 c -0.9750562499999994 0 -1.7206875000000001 -0.3513047370000002 -2.23689375 -1.06104474 c -0.5233734869999999 -0.716953125 -0.7886530260000002 -1.74931974 -0.7886530260000002 -3.0972375 s 0.26527036200000015 -2.3803302599999996 0.7886530260000002 -3.0972375 c 0.5162062500000001 -0.716953125 1.2618375 -1.0754526299999998 2.23689375 -1.0754526299999998 z m 0 -3.21195 c -2.41612056 0 -4.30529778 0.6560086680000006 -5.66395263 1.9644286199999998 c -1.3550758200000002 1.3012986000000004 -2.03619276 3.1079745899999995 -2.03619276 5.42011974 c 0 2.30498709 0.6811077630000002 4.1117548500000005 2.03619276 5.42011974 c 1.3586548500000002 1.3012986000000004 3.24783207 1.9501124999999995 5.66395263 1.9501124999999995 c 2.43043668 0 4.32677196 -0.6488414310000005 5.69258487 -1.9501124999999995 c 1.3693919399999999 -1.30845666 2.0505088799999998 -3.1151326499999996 2.0505088799999998 -5.42011974 c 0 -2.3121451499999996 -0.6811077630000002 -4.11891291 -2.0505088799999998 -5.42011974 c -1.3658129100000003 -1.30845666 -3.26214819 -1.9644286199999998 -5.69258487 -1.9644286199999998 z" stroke-linecap="round" />
</g>
		<g transform="matrix(1 0 0 1 72.1 357.01)" id="svg_83"  >
<path style="stroke: none; stroke-width: 1; stroke-dasharray: none; stroke-linecap: butt; stroke-dashoffset: 0; stroke-linejoin: miter; stroke-miterlimit: 4; fill: rgb(150,148,252); fill-rule: nonzero; opacity: 1;" vector-effect="non-scaling-stroke"  transform=" translate(-372.1, -748.01)" d="m 379.15903309698103 749.3773802904035 v -8.57480526 h -4.51682763 v 1.40518224 c 0 0.7671421380000003 0.007169990100000007 1.7206875000000001 0.014339062500000012 2.8678125 c 0.010754526300000015 1.147125 0.014339062500000012 1.9142304300000001 0.014339062500000012 2.29425 c 0 1.1399669399999999 -0.028678125000000023 1.9572705599999998 -0.0860343750000001 2.45200263 c -0.06452624010000009 0.49828356900000026 -0.16490151300000008 0.8567555430000002 -0.3011157240000002 1.0754526299999998 c -0.18999143100000018 0.2975366940000002 -0.43376008200000016 0.526961694 -0.7312967760000003 0.6882750000000005 c -0.2939484870000003 0.15414606900000014 -0.634506957 0.22942500000000016 -1.01809638 0.22942500000000016 c -0.93559515 0 -1.6704893100000002 -0.3584719740000002 -2.20816974 -1.0754526299999998 c -0.534128931 -0.716953125 -0.8029875000000002 -1.71352944 -0.8029875000000002 -2.9968411199999996 v -6.9401062499999995 h -4.48810362 v 14.051822399999999 h 4.48810362 v -2.03619276 c 0.6811077630000002 0.8244983880000001 1.3980241800000006 1.4303272200000001 2.1509052599999996 1.8210838799999998 c 0.756386694 0.3799828620000005 1.5916588799999998 0.5735624999999999 2.5093588799999997 0.5735624999999999 c 1.6167120900000005 0 2.84991735 -0.4946953620000002 3.69943224 -1.4912625 c 0.8531765130000004 -0.9929514 1.2761536199999999 -2.4412655399999994 1.2761536199999999 -4.3447588800000005 z" stroke-linecap="round" />
</g>
		<g transform="matrix(1 0 0 1 53.6 356.66)" id="svg_85"  >
<path style="stroke: none; stroke-width: 1; stroke-dasharray: none; stroke-linecap: butt; stroke-dashoffset: 0; stroke-linejoin: miter; stroke-miterlimit: 4; fill: rgb(150,148,252); fill-rule: nonzero; opacity: 1;" vector-effect="non-scaling-stroke"  transform=" translate(-353.6, -747.65)" d="m 346.54134097070687 746.2913767854259 v 8.560397369999999 h 4.51682763 v -6.55292862 c 0 -1.21163931 0.028678125000000023 -2.0505088799999998 0.0860343750000001 -2.5093588799999997 s 0.15414606900000014 -0.7958202630000003 0.28678125000000004 -1.01809638 c 0.17206875000000008 -0.28678125000000004 0.41224919400000004 -0.5090390130000003 0.716953125 -0.6739405260000005 c 0.2975366940000002 -0.16131330600000013 0.6380859870000002 -0.24375947400000014 1.01809638 -0.24375947400000014 c 0.9391741800000002 0 1.67406834 0.3656483880000002 2.20816974 1.08976875 c 0.5377171380000001 0.716953125 0.8029875000000002 1.7171084700000003 0.8029875000000002 2.9968411199999996 v 6.911382239999999 h 4.48810362 v -14.051822399999999 h -4.48810362 v 2.0505088799999998 c -0.6775195559999999 -0.8101547370000003 -1.3944451499999997 -1.41243207 -2.1509052599999996 -1.80676776 c -0.763553931 -0.39073830600000015 -1.6059750000000004 -0.5878969740000004 -2.523675 -0.5878969740000004 c -1.6238701500000001 0 -2.8570754099999998 0.5018717760000003 -3.69943224 1.5055786199999999 c -0.8388328620000002 0.9965304300000001 -1.2618375 2.43759474 -1.2618375 4.3304427599999995 z" stroke-linecap="round" />
</g>
		<g transform="matrix(1 0 0 1 25.45 354.49)" id="svg_87"  >
<path style="stroke: none; stroke-width: 1; stroke-dasharray: none; stroke-linecap: butt; stroke-dashoffset: 0; stroke-linejoin: miter; stroke-miterlimit: 4; fill: rgb(150,148,252); fill-rule: nonzero; opacity: 1;" vector-effect="non-scaling-stroke"  transform=" translate(-325.45, -745.49)" d="m 333.15913884444694 736.124334371804 h -8.01555888 c -2.3803302599999996 0 -4.2049014 0.5305407240000002 -5.4775677599999995 1.5916588799999998 c -1.2797326500000001 1.05388668 -1.9214802599999996 2.5595570699999994 -1.9214802599999996 4.51682763 c 0 1.9608495899999998 0.6416741940000005 3.4700072399999997 1.9214802599999996 4.53114375 c 1.27257459 1.06104474 3.0972375 1.5916588799999998 5.4775677599999995 1.5916588799999998 h 3.1976338799999997 v 6.49557237 h 4.817925 z m -4.817925 3.49873125 v 5.23373487 h -2.68142763 c -0.93559515 0 -1.6561731899999999 -0.22942500000000016 -2.1652213799999998 -0.6882750000000005 c -0.5162062500000001 -0.4588500000000002 -0.774309375 -1.10408487 -0.774309375 -1.9357963799999998 c 0 -0.8388328620000002 0.25810312500000004 -1.48410444 0.774309375 -1.9357963799999998 c 0.5090390130000003 -0.44809455600000014 1.22953446 -0.6739405260000005 2.1652213799999998 -0.6739405260000005 z" stroke-linecap="round" />
</g>
		<g transform="matrix(1 0 0 1 9.27 356.66)" id="svg_89"  >
<path style="stroke: none; stroke-width: 1; stroke-dasharray: none; stroke-linecap: butt; stroke-dashoffset: 0; stroke-linejoin: miter; stroke-miterlimit: 4; fill: rgb(150,148,252); fill-rule: nonzero; opacity: 1;" vector-effect="non-scaling-stroke"  transform=" translate(-309.27, -747.65)" d="m 304.0520241707069 744.6276498177306 c 0.40149375000000015 -0.17923598700000007 0.7993992930000003 -0.31545937500000026 1.19016513 -0.40149375000000015 c 0.38357106900000026 -0.09320161200000006 0.7707211680000001 -0.14339062500000002 1.16144112 -0.14339062500000002 c 1.1578620900000003 0 2.04692985 0.3728156250000001 2.66701974 1.1184927600000003 c 0.6237515130000006 0.7384640130000004 0.9320161199999998 1.7923598699999999 0.9320161199999998 3.1689098700000007 v 6.48125625 h 4.48810362 v -14.051822399999999 h -4.48810362 v 2.30856612 c -0.5735624999999999 -0.9177000000000002 -1.23320526 -1.5845008200000001 -1.97874474 -2.00746875 c -0.7527984870000004 -0.43017187500000026 -1.6525941600000005 -0.6452532240000003 -2.69574375 -0.6452532240000003 c -0.15055786200000004 0 -0.31545937500000026 0.010754526300000015 -0.487528125 0.028678125000000023 c -0.17923598700000007 0.010754526300000015 -0.4373391120000003 0.03584719740000003 -0.774309375 0.07169531250000008 z" stroke-linecap="round" />
</g>
		<g transform="matrix(1 0 0 1 -4.88 356.84)" id="svg_91"  >
<path style="stroke: none; stroke-width: 1; stroke-dasharray: none; stroke-linecap: butt; stroke-dashoffset: 0; stroke-linejoin: miter; stroke-miterlimit: 4; fill: rgb(150,148,252); fill-rule: nonzero; opacity: 1;" vector-effect="non-scaling-stroke"  transform=" translate(-295.12, -747.84)" d="m 295.0974260706471 743.6718835029147 c 0.9965304300000001 0 1.75656957 0.3584719740000002 2.2799338799999997 1.0754526299999998 c 0.526961694 0.716953125 0.7886530260000002 1.74931974 0.7886530260000002 3.0972375 s -0.26169133199999994 2.3803302599999996 -0.7886530260000002 3.0972375 c -0.5233734869999999 0.7097858880000002 -1.2833116800000002 1.06104474 -2.2799338799999997 1.06104474 c -0.9750562499999994 0 -1.7206875000000001 -0.3513047370000002 -2.23689375 -1.06104474 c -0.5233734869999999 -0.716953125 -0.7886530260000002 -1.74931974 -0.7886530260000002 -3.0972375 s 0.26527036200000015 -2.3803302599999996 0.7886530260000002 -3.0972375 c 0.5162062500000001 -0.716953125 1.2618375 -1.0754526299999998 2.23689375 -1.0754526299999998 z m 0 -3.21195 c -2.41612056 0 -4.30529778 0.6560086680000006 -5.66395263 1.9644286199999998 c -1.3550758200000002 1.3012986000000004 -2.03619276 3.1079745899999995 -2.03619276 5.42011974 c 0 2.30498709 0.6811077630000002 4.1117548500000005 2.03619276 5.42011974 c 1.3586548500000002 1.3012986000000004 3.24783207 1.9501124999999995 5.66395263 1.9501124999999995 c 2.43043668 0 4.32677196 -0.6488414310000005 5.69258487 -1.9501124999999995 c 1.3693919399999999 -1.30845666 2.0505088799999998 -3.1151326499999996 2.0505088799999998 -5.42011974 c 0 -2.3121451499999996 -0.6811077630000002 -4.11891291 -2.0505088799999998 -5.42011974 c -1.3658129100000003 -1.30845666 -3.26214819 -1.9644286199999998 -5.69258487 -1.9644286199999998 z" stroke-linecap="round" />
</g>
		<g transform="matrix(1 0 0 1 -16.63 356.88)" id="svg_93"  >
<path style="stroke: none; stroke-width: 1; stroke-dasharray: none; stroke-linecap: butt; stroke-dashoffset: 0; stroke-linejoin: miter; stroke-miterlimit: 4; fill: rgb(150,148,252); fill-rule: nonzero; opacity: 1;" vector-effect="non-scaling-stroke"  transform=" translate(-283.37, -747.87)" d="m 284.10032633330354 740.8119659332252 h -4.48810362 v 13.7939487 c 0 1.8820191600000002 0.4552617930000003 3.3195044400000002 1.3622338799999998 4.31603487 c 0.8997773190000001 0.9929514 2.20816974 1.4912625 3.9288572399999997 1.4912625 h 2.22257763 v -2.95389276 h -0.7886530260000002 c -0.8495883059999997 0 -1.4339062500000002 -0.19357963800000014 -1.74931974 -0.5735624999999999 c -0.32262661200000026 -0.38357106900000026 -0.487528125 -1.14354597 -0.487528125 -2.2799338799999997 z m 0 -5.4775677599999995 h -4.48810362 v 3.6708000000000007 h 4.48810362 z" stroke-linecap="round" />
</g>
		<g transform="matrix(1 0 0 1 -31.24 356.85)" id="svg_95"  >
<path style="stroke: none; stroke-width: 1; stroke-dasharray: none; stroke-linecap: butt; stroke-dashoffset: 0; stroke-linejoin: miter; stroke-miterlimit: 4; fill: rgb(150,148,252); fill-rule: nonzero; opacity: 1;" vector-effect="non-scaling-stroke"  transform=" translate(-268.76, -747.84)" d="m 261.22079979312593 747.7945694946335 v 1.29046974 h 10.510418099999999 c -0.11471250000000006 1.05388668 -0.4946953620000002 1.84255806 -1.147125 2.3659223700000003 c -0.6488414310000005 0.526961694 -1.5629348699999999 0.7886530260000002 -2.7387838799999997 0.7886530260000002 c -0.9463322400000002 0 -1.9106513999999999 -0.13622338800000014 -2.89644474 -0.41582822400000036 c -0.9929514 -0.28678125000000004 -2.01104778 -0.7097858880000002 -3.05419737 -1.2761536199999999 v 3.4556911199999996 c 1.06104474 0.40149375000000015 2.1221812499999997 0.7026094740000005 3.1833177599999996 0.9033655259999996 c 1.06104474 0.2079141120000002 2.1221812499999997 0.31545937500000026 3.1833177599999996 0.31545937500000026 c 2.54514918 0 4.52398569 -0.6452532240000003 5.9364177599999985 -1.9357963799999998 c 1.40518224 -1.29046974 2.10786513 -3.1008165300000003 2.10786513 -5.43452763 c 0 -2.29425 -0.6918632070000003 -4.0937679299999985 -2.07914112 -5.40580362 c -1.38370806 -1.31919375 -3.2872013999999994 -1.97874474 -5.7069927599999986 -1.97874474 c -2.20816974 0 -3.9754764 0.6703523189999999 -5.30540724 2.00746875 c -1.32635181 1.32993084 -1.99315263 3.10439556 -1.99315263 5.31981513 z m 4.61713224 -1.4912625 c 0 -0.8495883059999997 0.25093588800000005 -1.5343026300000002 0.7456312500000002 -2.0505088799999998 c 0.49828356900000026 -0.5233734869999999 1.147125 -0.7886530260000002 1.9501124999999995 -0.7886530260000002 c 0.8710991940000002 0 1.57734276 0.24375947400000014 2.1221812499999997 0.7312967760000003 s 0.8854336680000001 1.19016513 1.01809638 2.10786513 z" stroke-linecap="round" />
</g>
		<g transform="matrix(1 0 0 1 -47.36 356.85)" id="svg_97"  >
<path style="stroke: none; stroke-width: 1; stroke-dasharray: none; stroke-linecap: butt; stroke-dashoffset: 0; stroke-linejoin: miter; stroke-miterlimit: 4; fill: rgb(150,148,252); fill-rule: nonzero; opacity: 1;" vector-effect="non-scaling-stroke"  transform=" translate(-252.64, -747.85)" d="m 246.4371948461067 741.2560487646335 v 3.6564838799999997 c 0.6022406250000003 -0.4194164310000003 1.21521834 -0.7312967760000003 1.8354 -0.9320161199999998 c 0.6129960690000001 -0.2007468750000001 1.24752138 -0.3011157240000002 1.9070723699999999 -0.3011157240000002 c 1.2546794399999999 0 2.23331472 0.36922741800000003 2.9394848700000002 1.10408487 c 0.6990304440000003 0.727708569 1.0467286199999999 1.74931974 1.0467286199999999 3.06860526 c 0 1.31203569 -0.34772570700000033 2.3337111 -1.0467286199999999 3.06860526 c -0.706197681 0.727708569 -1.6848054300000008 1.08976875 -2.9394848700000002 1.08976875 c -0.6954422370000005 0 -1.3622338799999998 -0.10037802600000001 -1.99315263 -0.3011157240000002 c -0.6309187500000003 -0.2079141120000002 -1.21163931 -0.5197944570000004 -1.74931974 -0.9320161199999998 v 3.6708000000000007 c 0.6990304440000003 0.25810312500000004 1.41243207 0.44809455600000014 2.13649737 0.5735624999999999 c 0.716953125 0.13263518100000007 1.44464334 0.2007468750000001 2.1795375 0.2007468750000001 c 2.53441209 0 4.51682763 -0.6488414310000005 5.95073388 -1.9501124999999995 c 1.42674819 -1.29771957 2.13649737 -3.10439556 2.13649737 -5.42011974 c 0 -2.3228822399999998 -0.7097858880000002 -4.13322903 -2.13649737 -5.43452763 c -1.4339062500000002 -1.29771957 -3.416321790000001 -1.9501124999999995 -5.95073388 -1.9501124999999995 c -0.7348758060000002 0 -1.46263026 0.06811077630000008 -2.1795375 0.2007468750000001 c -0.716953125 0.12546794400000008 -1.42674819 0.32262661200000026 -2.13649737 0.5878969740000004 z" stroke-linecap="round" />
</g>
		<g transform="matrix(1 0 0 1 -61.34 354.84)" id="svg_99"  >
<path style="stroke: none; stroke-width: 1; stroke-dasharray: none; stroke-linecap: butt; stroke-dashoffset: 0; stroke-linejoin: miter; stroke-miterlimit: 4; fill: rgb(150,148,252); fill-rule: nonzero; opacity: 1;" vector-effect="non-scaling-stroke"  transform=" translate(-238.66, -745.84)" d="m 237.6114918697404 736.8180604768264 v 3.98630526 h -4.631540129999999 v 3.21195 h 4.631540129999999 v 5.965049999999999 c 0 0.6524296380000005 -0.129046974 1.08976875 -0.3871592760000003 1.31919375 s -0.7671421380000003 0.3441375000000002 -1.5343026300000002 0.3441375000000002 h -2.30856612 v 3.21195 h 3.8428687499999996 c 1.7780437500000001 0 3.03988125 -0.3656483880000002 3.7855125 -1.10408487 c 0.7384640130000004 -0.7456312500000002 1.10408487 -2.00031069 1.10408487 -3.7711963799999997 v -5.965049999999999 h 2.22257763 v -3.21195 h -2.22257763 v -3.98630526 z" stroke-linecap="round" />
</g>
		<g transform="matrix(1 0 0 1 -36.24 471.87)" id="svg_1"  >
<path style="stroke: rgb(0,0,0); stroke-width: 1; stroke-dasharray: none; stroke-linecap: butt; stroke-dashoffset: 0; stroke-linejoin: miter; stroke-miterlimit: 4; fill: none; fill-rule: nonzero; opacity: 1;"  transform=" translate(-263.76, -862.87)" d="M 263.6108394699199 862.8493755723194 L 263.900987797728 862.8493755723194 L 263.900987797728 863.1395239001276 L 263.6108394699199 863.1395239001276 L 263.6108394699199 862.8493755723194 z M 263.6446901081641 862.5930778827557 L 263.6446901081641 862.8155249340751 L 263.8671371594837 862.8155249340751 L 263.8671371594837 862.5930778827557 L 263.6446901081641 862.5930778827557 z" stroke-linecap="round" />
</g>
</g>
</g>
</svg>